<?xml version="1.0" encoding="UTF-8" standalone="no"?><!DOCTYPE svg PUBLIC "-//W3C//DTD SVG 1.1//EN" "http://www.w3.org/Graphics/SVG/1.1/DTD/svg11.dtd"><svg width="100%" height="100%" viewBox="0 0 1000 540" version="1.1" xmlns="http://www.w3.org/2000/svg" xmlns:xlink="http://www.w3.org/1999/xlink" xml:space="preserve" xmlns:serif="http://www.serif.com/" style="fill-rule:evenodd;clip-rule:evenodd;stroke-linejoin:round;stroke-miterlimit:2;"><g><g><g><path d="M688.968,137.794l12.881,-3.073l-3.641,-12.156l9.233,9.072l9.25,-9.072l-3.643,12.156l12.871,3.073l-12.871,3.079l3.643,12.161l-9.25,-9.076l-9.233,9.076l3.641,-12.161l-12.881,-3.079Zm0,67.102l12.881,-3.073l-3.641,-12.156l9.233,9.072l9.25,-9.072l-3.643,12.156l12.871,3.073l-12.871,3.079l3.643,12.161l-9.25,-9.076l-9.233,9.076l3.641,-12.161l-12.881,-3.079Zm0,67.102l12.881,-3.073l-3.641,-12.156l9.233,9.072l9.25,-9.072l-3.643,12.156l12.871,3.073l-12.871,3.079l3.643,12.161l-9.25,-9.077l-9.233,9.077l3.641,-12.161l-12.881,-3.079Zm0,67.102l12.881,-3.074l-3.641,-12.155l9.233,9.071l9.25,-9.071l-3.643,12.155l12.871,3.074l-12.871,3.079l3.643,12.161l-9.25,-9.077l-9.233,9.077l3.641,-12.161l-12.881,-3.079Z" style="fill:#105980;fill-rule:nonzero;"/></g><path d="M691.885,376.845l31.117,0l0,83.359l-31.117,0l0,-83.359Zm31.117,-276.785l-31.117,0l0,-83.359l31.117,0l0,83.359Z" style="fill:#105980;"/></g><rect x="14.015" y="479.717" width="971.97" height="43.582" style="fill:#105980;"/><text x="230.966px" y="514.255px" style="font-family:'AvenirNext-Heavy', 'Avenir Next', sans-serif;font-weight:900;font-size:36.009px;fill:#fff;">C<tspan x="270.432px 313.715px 341.514px 380.548px 422.246px 464.089px 509.28px 559.981px 610.682px 653.028px 680.395px 719.429px 764.621px " y="514.255px 514.255px 514.255px 514.255px 514.255px 514.255px 514.255px 514.255px 514.255px 514.255px 514.255px 514.255px 514.255px ">HICAGOMMA.COM</tspan></text><g><g><path d="M963.548,325.211c0,1.386 0.012,0 0.012,0c11.296,0.034 22.253,8.883 22.379,20.584c0.104,31.179 0,62.36 0,93.54c-0.028,8.46 -6.118,16.31 -14.188,19.268c-2.578,0.944 -5.326,1.422 -8.062,1.444c-69.162,0.209 -138.325,0.209 -207.487,0c-10.506,-0.087 -20.983,-7.729 -22.144,-18.699c-0.066,-0.626 -0.099,-1.255 -0.105,-1.884c-0.104,-31.18 -0.001,-62.36 -0.001,-93.54c0.028,-8.512 6.191,-16.39 14.314,-19.314c2.58,-0.928 5.321,-1.391 8.071,-1.399l207.211,0Z" style="fill:#fff;"/><path d="M978.262,439.369c0,7.006 -5.904,12.738 -13.619,12.738l-208.855,0c-7.714,0 -14.023,-5.732 -14.023,-12.738l0,-93.571c0,-7.007 6.309,-12.74 14.023,-12.74l208.855,0c7.715,0 13.619,5.733 13.619,12.74l0,93.571Zm-14.714,-110l-207.205,0c-10.029,0 -18.233,7.452 -18.233,16.562l0,93.397c0,9.108 8.204,16.562 18.233,16.562l207.205,0c10.028,0 18.234,-7.454 18.234,-16.562l0,-93.397c0,-9.11 -8.206,-16.562 -18.234,-16.562m-2.172,41.682l5.38,-7.47c0,0 -4.265,-19.734 -16.652,-5.44c-3.486,4.024 -5.981,15.932 -6.091,22.961c-0.165,10.587 3.107,19.193 4.922,23.132c0.973,2.108 2.396,4.033 4.268,5.56c3.172,2.581 8.133,4.53 11.73,-3.852c0.554,-1.286 0.97,-2.614 1.283,-3.967c0.952,-4.106 3.312,-15.678 2.164,-25.207l-12.285,1.199l0,11.803l6.295,0.183c0,0 -1.319,12.543 -6.499,10.237c-3.706,-1.65 -4.915,-9.703 -5.304,-14.144c-0.164,-1.894 -0.038,-6.566 0.228,-8.448c1.016,-7.193 5.889,-18.812 10.561,-6.547m-43.762,31.168l6.194,1.2l-0.304,-27.389l10.457,29.141l6.194,1.382l0,-47.767l-6.091,1.383l0.506,30.8c-0.506,-4.703 -10.762,-28.679 -10.762,-28.679l-6.194,1.106l0,38.823Zm-16.042,-8.945c3.309,0 5.991,-4.562 5.991,-10.189c0,-5.628 -2.682,-10.19 -5.991,-10.19c-3.308,0 -5.989,4.562 -5.989,10.19c0,5.627 2.681,10.189 5.989,10.189m0.357,-28.309c6.7,0 12.132,8.112 12.132,18.12c0,10.008 -5.432,18.12 -12.132,18.12c-6.702,0 -12.133,-8.112 -12.133,-18.12c0,-10.008 5.431,-18.12 12.133,-18.12m-39.445,20.531c0.662,-4.764 -0.507,-7.5 -0.507,-7.5c0,0 -0.849,-2.686 -3.333,-3.295l-4.006,-0.253l0,16.521l4.058,-0.254c0,0 3.122,-0.456 3.788,-5.219m4.874,-11.126c0,0 3.046,4.98 1.319,13.648c-1.726,8.669 -9.849,9.499 -9.849,9.499l-10.557,0.461l0,-30.063l10.42,0.461c6.462,1.107 8.667,5.994 8.667,5.994m-34.572,17.799c3.337,0 6.041,-4.182 6.041,-9.337c0,-5.157 -2.704,-9.337 -6.041,-9.337c-3.336,0 -6.04,4.18 -6.04,9.337c0,5.155 2.704,9.337 6.04,9.337m-0.201,-25.73c6.811,0 12.333,7.371 12.333,16.461c0,9.092 -5.522,16.46 -12.333,16.46c-6.816,0 -12.337,-7.368 -12.337,-16.46c0,-9.09 5.521,-16.461 12.337,-16.461m38.63,8.485l5.077,0.184l0,22.87l6.296,0.461l0.101,-23.792l5.177,0l0,-7.653c-1.219,0.184 -16.651,0.921 -16.651,0.921l0,7.009Zm-63.05,9.498l0,16.783l5.991,-0.83l0.202,-16.323l7.615,-17.981l-7.006,-0.737l-3.857,11.157l-3.859,-12.357l-7.208,-1.199l8.122,21.487Zm-26.194,-14.109l5.381,0.738l-0.102,33.197l6.294,-1.384l0.103,-31.353l4.872,0.554l0,-9.406c-8.121,-1.199 -16.548,-3.505 -16.548,-3.505l0,11.159Zm-9.443,37.347l6.397,-1.751l0,-47.4l-6.397,-1.844l0,50.995Zm-6.261,-38.515c0,0 -2.735,-5.327 -4.67,-5.042c-2.911,0.432 -2.093,6.171 -1.456,7.593c1.444,3.223 3.332,3.89 4.795,5.752c1.257,1.594 3.09,2.518 3.75,7.271c2.836,20.408 -4.091,25.826 -8.239,27.829c-3.163,1.525 -5.891,-3.04 -7.136,-5.618c-0.484,-1.003 -0.609,-2.116 -0.368,-3.19l2.494,-11.112c1.028,4.466 2.506,6.439 3.645,7.309c0.895,0.684 2.245,0.469 2.873,-0.43c1.211,-1.74 2.852,-5.893 0.622,-10.105c-0.741,-1.405 -2.44,-2.27 -4.026,-3.781c-3.489,-3.33 -4.606,-8.126 -5.01,-12.909c-0.323,-3.829 -0.335,-8.725 1.355,-14.755c2.943,-10.507 8.912,-4.722 11.785,-1.055c1.053,1.345 1.467,3.015 1.136,4.639l-1.55,7.604m119.66,-13.639l5.847,0l0,-1.367l-4.052,0l0,-7.581l-1.795,0l0,8.948Zm-8.875,-3.77l0.759,-2.204c0.175,-0.531 0.323,-1.154 0.468,-1.672l0.03,0c0.145,0.518 0.306,1.127 0.497,1.672l0.774,2.204l-2.528,0Zm2.836,1.235l0.891,2.535l1.929,0l-3.201,-8.948l-2.294,0l-3.159,8.948l1.858,0l0.846,-2.535l3.13,0Zm-10.731,2.535l1.798,0l0,-8.948l-1.798,0l0,8.948Zm-3.1,-1.553c-0.468,0.199 -1.229,0.332 -1.96,0.332c-2.164,0 -3.435,-1.261 -3.435,-3.226c0,-2.151 1.447,-3.293 3.451,-3.293c0.817,0 1.461,0.16 1.929,0.345l0.393,-1.301c-0.365,-0.173 -1.213,-0.398 -2.396,-0.398c-3.013,0 -5.264,1.779 -5.264,4.726c0,2.722 1.901,4.515 5.03,4.515c1.184,0 2.119,-0.212 2.544,-0.411l-0.292,-1.289Zm-11.887,1.553l1.797,0l0,-8.948l-1.797,0l0,8.948Zm-9.049,0l1.798,0l0,-3.796l3.626,0l0,-1.342l-3.626,0l0,-2.469l3.889,0l0,-1.341l-5.687,0l0,8.948Zm-9.139,0l1.8,0l0,-3.796l3.625,0l0,-1.342l-3.625,0l0,-2.469l3.888,0l0,-1.341l-5.688,0l0,8.948Zm-7.501,-7.792c1.8,0 2.721,1.605 2.721,3.292c0,1.872 -0.981,3.346 -2.721,3.346c-1.724,0 -2.733,-1.46 -2.733,-3.279c0,-1.846 0.952,-3.359 2.733,-3.359m0.045,-1.302c-2.778,0 -4.678,1.938 -4.678,4.687c0,2.628 1.754,4.554 4.532,4.554c2.718,0 4.722,-1.713 4.722,-4.713c0,-2.55 -1.696,-4.528 -4.576,-4.528m-82.159,-4.993c0,0 1.488,-4.673 9.138,-5.963l210.033,0.061c0,0 5.686,0.615 8.325,5.902c0,0 -47.179,23.116 -112.902,23.116c-64.775,0 -114.594,-23.116 -114.594,-23.116m149.089,73.891l-3.714,0l0,2.63l4.153,0l0,1.341l-5.952,0l0,-8.952l5.732,0l0,1.342l-3.933,0l0,2.311l3.714,0l0,1.328Zm-12.798,-3.611l-2.806,0l0,-1.37l7.442,0l0,1.37l-2.836,0l0,7.582l-1.8,0l0,-7.582Zm-6.698,3.811l-0.775,-2.205c-0.19,-0.544 -0.351,-1.156 -0.497,-1.673l-0.029,0c-0.147,0.517 -0.293,1.142 -0.469,1.673l-0.759,2.205l2.529,0Zm-2.822,1.235l-0.848,2.536l-1.858,0l3.159,-8.952l2.295,0l3.204,8.952l-1.93,0l-0.893,-2.536l-3.129,0Zm-5.529,2.536l-1.799,0l0,-8.952l1.799,0l0,8.952Zm-10.501,-8.952l1.799,0l0,7.584l4.05,0l0,1.368l-5.849,0l0,-8.952Zm-3.555,8.952l-1.798,0l0,-8.952l1.798,0l0,8.952Zm-10.734,-8.952l5.689,0l0,1.342l-3.89,0l0,2.471l3.627,0l0,1.342l-3.627,0l0,3.797l-1.799,0l0,-8.952Zm-8.936,0l5.689,0l0,1.342l-3.89,0l0,2.471l3.627,0l0,1.342l-3.627,0l0,3.797l-1.799,0l0,-8.952Zm-5.997,5.181l-0.776,-2.205c-0.189,-0.544 -0.35,-1.156 -0.496,-1.673l-0.029,0c-0.147,0.517 -0.293,1.142 -0.469,1.673l-0.759,2.205l2.529,0Zm-2.822,1.235l-0.848,2.536l-1.857,0l3.158,-8.952l2.295,0l3.203,8.952l-1.93,0l-0.892,-2.536l-3.129,0Zm134.531,11.141l1.336,4.992l4.325,0l-3.498,2.448l1.335,3.96l-3.498,-2.447l-3.499,2.447l1.336,-3.96l-3.5,-2.448l4.326,0l1.337,-4.992Zm-65.554,0l1.337,4.992l4.326,0l-3.499,2.448l1.335,3.96l-3.499,-2.447l-3.498,2.447l1.335,-3.96l-3.499,-2.448l4.326,0l1.336,-4.992Zm-131.428,0l1.337,4.992l4.324,0l-3.498,2.448l1.336,3.96l-3.499,-2.447l-3.499,2.447l1.335,-3.96l-3.498,-2.448l4.324,0l1.338,-4.992Zm183.413,2.913l-1.732,4.453l3.48,0l-1.748,-4.453Zm-1.209,-4.169l2.596,0l6.196,14.33l-3.54,0l-1.226,-3.037l-5.534,0l-1.188,3.037l-3.457,0l6.153,-14.33Zm-40.198,0l4.372,0l3.019,9.35l0.04,0l3.036,-9.35l4.357,0l0,14.33l-2.891,0l0,-10.991l-0.037,0l-3.446,10.991l-2.205,0l-3.317,-10.991l-0.038,0l0,10.991l-2.89,0l0,-14.33Zm17.462,0l4.373,0l3.019,9.35l0.039,0l3.037,-9.35l4.357,0l0,14.33l-2.891,0l0,-10.991l-0.037,0l-3.447,10.991l-2.205,0l-3.316,-10.991l-0.037,0l0,10.991l-2.892,0l0,-14.33Zm-41.114,0l3.142,0l0,14.33l-3.142,0l0,-14.33Zm-9.144,4.169l-1.698,4.453l3.413,0l-1.715,-4.453Zm-1.185,-4.169l2.544,0l6.076,14.33l-3.471,0l-1.203,-3.037l-5.427,0l-1.163,3.037l-3.395,0l6.039,-14.33Zm-19.88,0l3.063,0l0,5.342l5.954,0l0,-5.342l3.065,0l0,14.33l-3.065,0l0,-6.195l-5.954,0l0,6.195l-3.063,0l0,-14.33Zm-10.024,2.794l-4.488,0l0,-2.794l12.439,0l0,2.794l-4.484,0l0,11.536l-3.467,0l0,-11.536Zm-18.547,5.423l-5.195,-8.217l3.787,0l2.931,5.363l3.104,-5.363l3.613,0l-5.193,8.217l0,6.113l-3.047,0l0,-6.113Zm-11.72,-4.048l-1.725,4.453l3.468,0l-1.743,-4.453Zm-1.205,-4.169l2.589,0l6.174,14.33l-3.528,0l-1.224,-3.037l-5.512,0l-1.185,3.037l-3.449,0l6.135,-14.33Zm-7.797,8.805c0,0.851 -0.132,1.633 -0.391,2.347c-0.26,0.715 -0.644,1.337 -1.157,1.862c-0.51,0.526 -1.153,0.939 -1.917,1.235c-0.764,0.295 -1.644,0.445 -2.643,0.445c-1.01,0 -1.898,-0.15 -2.663,-0.445c-0.766,-0.296 -1.405,-0.709 -1.916,-1.235c-0.513,-0.525 -0.898,-1.147 -1.158,-1.862c-0.259,-0.714 -0.389,-1.496 -0.389,-2.347l0,-8.805l3.196,0l0,8.683c0,0.445 0.071,0.856 0.215,1.234c0.145,0.378 0.346,0.707 0.604,0.982c0.26,0.276 0.57,0.494 0.933,0.647c0.361,0.156 0.756,0.235 1.178,0.235c0.423,0 0.814,-0.079 1.17,-0.235c0.355,-0.153 0.662,-0.371 0.92,-0.647c0.259,-0.275 0.461,-0.604 0.605,-0.982c0.145,-0.378 0.216,-0.789 0.216,-1.234l0,-8.683l3.197,0l0,8.805Zm-29.909,-8.805l4.411,0l3.046,9.35l0.039,0l3.066,-9.35l4.393,0l0,14.33l-2.917,0l0,-10.991l-0.038,0l-3.477,10.991l-2.223,0l-3.347,-10.991l-0.037,0l0,10.991l-2.916,0l0,-14.33Zm-26.137,-7.165l0,20.562c0,0 1.726,8.024 9.139,8.577c7.411,0.554 211.488,0 211.488,0c0,0 7.817,-1.107 8.73,-8.3l0,-20.839c0,0 -51.373,-18.26 -114.83,-18.26c-63.456,0 -114.527,18.26 -114.527,18.26" style="fill:#105980;fill-rule:nonzero;"/></g><g><circle cx="859.946" cy="195.573" r="120.969" style="fill:#fff;"/><path d="M764.077,188.925c-1.231,-0.158 -1.885,0.489 -2.081,2.07l-0.326,2.523l3.595,0.457l0.319,-2.523c0.201,-1.582 -0.273,-2.37 -1.507,-2.527m67.718,-33.442c-0.087,-0.412 -0.053,-0.744 -0.136,-1.237c-0.578,0.247 -0.648,0.689 -0.687,0.962c-0.085,0.551 0.329,1.347 1.376,2.532c-0.332,-1.129 -0.467,-1.868 -0.553,-2.257m-27.619,4.079c-0.413,-0.348 -0.969,-0.124 -1.465,0.186c-0.493,0.311 -1.216,0.288 -1.549,0.559c-0.325,0.265 -0.97,0.739 -0.97,1.009c0.622,0.144 1.033,-0.207 1.716,0.473c0.699,0.701 0.639,1.713 0.845,3.076c0.328,-2.313 0.354,-3.665 0.824,-4.147c0.765,-0.785 1.096,-0.931 0.599,-1.156m40.645,32.166c0,0 -1.402,0.866 -1.856,1.154c-0.452,0.291 -1.817,0.496 -2.722,1.324c-0.912,0.823 -1.115,1.155 -2.272,1.358c-0.772,0.138 -1.442,0.164 -1.195,0.497c0.249,0.33 -1.692,0.288 -2.228,0.373c-0.535,0.082 -0.041,0.74 -1.444,0.492c-1.405,-0.245 -1.612,-0.453 -2.353,-1.154c-0.702,1.236 -0.235,3.143 0.248,3.591c0.43,0.393 1.196,0.618 2.308,0.494c1.115,-0.124 1.2,-0.869 2.559,-1.567c1.362,-0.703 2.727,-0.703 3.635,-1.24c0.905,-0.534 2.105,-1.608 3.012,-1.733c0.906,-0.124 2.847,-0.248 3.383,-1.732c0.537,-1.484 0.909,-2.889 -1.075,-1.857m-21.251,-39.946c0.537,0.702 0.783,1.481 0.765,2.043c-0.02,0.62 -0.249,1.281 -0.432,2.29c-0.136,0.717 -0.229,1.836 -0.084,2.827c0.577,-1.136 1.314,-2.258 1.816,-3.031c0.621,-0.958 2.006,-2.578 2.331,-3.303c-0.165,-0.554 -2.202,-1.994 -3.095,-2.105c-0.843,-0.102 -0.764,-0.247 -1.713,0.165c-0.768,0.337 -0.144,0.436 0.412,1.114m-15.846,7.16c-0.598,0.248 -0.474,0.828 -0.306,1.137c0.261,0.487 1.256,1.463 2.04,1.937c-0.268,-0.868 -0.816,-1.88 -0.949,-2.246c-0.143,-0.396 -0.374,-1.016 -0.785,-0.828m28.249,-0.652c0.499,-2.998 1.489,-2.108 1.737,-3.88c0.224,-1.567 -0.685,-3.231 -2.64,-3.163c0.674,0.756 1.029,0.992 1.124,2.284c0.14,1.815 -0.631,1.871 -0.221,4.759m-37.14,4.821c-0.187,0.31 -0.209,0.698 -0.042,1.01c0.262,0.49 0.783,1.485 1.261,1.443c-0.187,-0.824 -0.474,-1.324 -0.56,-1.709c-0.087,-0.397 -0.472,-1.055 -0.659,-0.744m21.466,-4.19c-0.483,-1.071 -0.94,-2.406 -1.072,-2.778c-0.147,-0.395 -0.39,-1.291 -0.689,-1.458c-0.551,-0.192 -0.466,1.401 -0.469,1.678c-0.008,0.559 1.032,1.528 2.23,2.558m-47.021,14.517l0.869,-2.807l-5.364,-0.119l4.495,2.926Zm42.124,18.414c-2.009,0.382 -3.549,0.162 -3.549,0.162c0,0 0.824,1.322 4.454,1.408c1.328,0.027 3.076,0.033 3.633,-0.582c0.825,-0.905 1.485,-0.411 1.984,0.085c0.49,0.497 1.234,0.99 4.204,0.823c1.815,-0.099 3.137,-0.326 3.963,-1.568c0.469,-0.7 0.99,-1.894 0.99,-1.894c0,0 0.991,0.35 2.641,0.41c1.65,0.063 2.061,-0.127 3.797,-0.988c1.27,-0.636 2.806,-1.985 3.303,-2.89c-1.157,0.657 -3.468,0.827 -6.274,0.657c-2.806,-0.163 -2.972,-3.961 -3.137,-5.61c-0.163,-1.651 -1.074,-4.209 -1.731,-6.355c-0.663,-2.143 -0.086,-4.209 0.246,-5.528c0.329,-1.321 -0.909,-2.973 -1.402,-3.3c0,0 -0.167,0.411 0.247,6.103c0.203,2.802 0.807,3.812 0.909,5.286c0.164,2.475 0.492,6.271 0.657,8.994c0.091,1.473 -0.578,3.55 -1.898,4.044c-1.321,0.496 -5.117,1.071 -6.934,0.577c-1.813,-0.493 -2.804,-5.199 -3.301,-9.163c-0.494,-3.961 -0.658,-9.078 -0.658,-9.902c0,-0.827 0.495,-4.619 0.495,-4.619l-0.66,-0.993l-0.084,5.283c0,0 -0.575,-3.467 -1.072,-4.624c0.163,2.066 0.163,3.964 0.497,5.282c0.33,1.322 0,2.312 0.496,7.596c0.492,5.283 1.072,6.353 1.4,8.171c0.332,1.816 -1.484,2.803 -3.216,3.135m-4.728,-37.055c-0.765,0.33 -0.679,0.472 0.397,0.867c0.636,0.164 1.214,0.513 1.295,1.071c0.13,0.878 -0.287,1.28 -0.472,2.291c-0.134,0.716 -0.041,1.219 0.104,2.205c0.577,-1.131 1.009,-2.227 1.423,-3.05c0.411,-0.829 1.834,-2.952 1.733,-3.118c-1.157,-0.226 -1.625,-0.387 -2.517,-0.493c-0.847,-0.104 -1.012,-0.186 -1.963,0.227m-23.225,-21.072c-0.963,-0.698 -1.911,-0.491 -2.686,0.579l-1.432,1.983l2.982,2.149l1.428,-1.98c0.774,-1.072 0.673,-2.037 -0.292,-2.731m124.511,57.672c0,1.991 -1.031,0.659 -4.184,1.854c1.669,0.047 2.201,-0.216 2.753,0.554c0.548,0.768 0.685,2.285 1.319,2.86c1.018,0.922 1.062,3.44 1.266,5.009c0.23,1.744 1.405,2.104 1.405,3.752c0,1.652 -0.576,4.455 0.082,7.305c0.476,2.062 0.425,4.458 -0.952,9.201c0.057,-2.189 0.704,-5.652 -0.243,-9.118c-0.274,1.171 -0.374,4.539 -1.736,7.55c-0.769,1.702 -3.257,4.705 -5.157,1.652c-1.845,-2.97 -1.816,-7.304 -0.935,-9.064c0.879,-1.763 1.239,-3.016 1.239,-3.016c0,0 -0.248,0.376 -1.239,1.586c-0.986,1.209 -3.409,8.249 -0.881,14.083c2.53,5.833 5.166,9.134 9.355,7.812c5.666,-1.787 5.578,-3.56 6.822,-6.82c-2.066,4.707 -2.931,4.993 -6.602,5.777c1.401,-2.187 2.391,-2.962 4.374,-14.609c0.902,-5.308 -2.174,-12.407 -2.397,-16.039c0,0 0,-7.73 -1.072,-9.546c-1.081,-1.827 -0.751,-4 -1.076,-4.95c-0.218,-0.669 -0.533,-1.401 -3.68,-0.467c2.778,-0.152 3.77,1.125 2.53,2.612c-0.828,0.463 -1.281,-0.658 -3.961,0.577c1.692,0.085 2.97,-0.288 2.97,1.445m-34.386,-4.058c0.604,-0.247 1.1,-0.496 0.302,-0.468c-1.035,0.037 -1.79,-1.293 -1.707,-0.771c0.084,0.524 0.8,1.489 1.405,1.239m3.708,-19.112c0.903,-1.444 3.075,-1.755 2.72,-2.022c-0.2,-0.155 -0.575,-0.144 -1.238,0.062c-0.609,0.189 -0.991,0.536 -1.257,0.803c-0.268,0.272 -1.217,2.211 -1.217,2.211c0,0 0.226,-0.084 0.992,-1.054m-7.482,-19.784c-0.614,-0.045 -0.904,0.74 -0.904,0.74c0,0 0.416,-0.237 0.853,-0.356c0.886,-0.249 0.857,0.961 0.137,1.292c-0.551,0.255 -1.486,0.332 -1.431,0.906c0.121,1.277 0.964,1.255 0.964,1.255c0,0 -0.053,0.314 -0.165,0.699c-0.22,0.027 -0.388,0.22 -0.616,1.568c-0.198,1.14 0.534,-0.081 0.644,-1.016c0.044,-0.411 0.632,-0.716 0.673,-1.089c0.041,-0.372 -0.312,-0.764 0.066,-1.17c0.496,-0.521 0.776,-1.551 0.776,-2.089c0,-0.537 -0.372,-0.7 -0.997,-0.74m35.849,85.989c-1.134,-0.24 -1.651,-0.699 -1.651,-0.699c-0.658,2.641 -2.105,5.203 -3.837,5.405c-2.974,1.368 -4.21,0.085 -5.572,0.085c0.704,0.451 1.861,1.236 2.972,1.36c1.114,0.122 2.27,1.078 4.25,0.743c1.984,-0.326 5.118,-2.431 6.52,-2.765c1.405,-0.331 2.064,-2.434 3.136,-3.794c0.537,-0.684 0.643,-1.1 0.643,-1.1c0,0 -1.152,0.873 -2.293,0.936c-1.479,0.08 -3.104,0.061 -4.168,-0.171m-19.027,-59.622c-0.489,0.865 -1.685,3.549 -3.335,4.373c-1.653,0.826 -4.09,1.157 -5.862,0.826c-1.777,-0.33 -5.614,-1.363 -7.429,-5.695c-1.815,-4.332 -2.762,-8.253 -2.931,-9.243c-0.111,-0.673 0.628,-3.919 1.203,-6.127c-0.03,0.03 -0.063,0.064 -0.087,0.088c-0.277,0.277 -0.577,1.568 -0.935,2.336c-0.358,0.771 -0.823,2.506 -0.801,4.044c0.027,1.542 1.021,5.259 1.431,6.932c0.412,1.682 1.241,4.954 1.513,6.661c0.248,1.519 1.267,4.261 1.819,4.868c-0.248,-1.267 -0.558,-2.619 -0.716,-3.382c-0.165,-0.799 -0.165,-2.174 -0.108,-2.723c0,0 2.203,1.816 3.492,2.362c1.291,0.553 2.31,0.688 3.132,0.802c0.238,0.028 -0.107,1.071 -0.382,1.731c-0.234,0.553 -0.798,1.459 -1.156,2.037c0.33,-0.084 0.606,-0.277 1.046,-0.852c0.444,-0.582 1.189,-1.759 1.346,-1.71c0.442,0.142 0.719,0.385 0.91,0.747c-0.361,0.74 -0.797,1.487 -2.093,2.475c-0.861,0.662 -1.016,1.264 -1.483,1.817c1.211,-0.717 1.597,-1.237 1.812,-1.237c0.221,0 0.442,0.328 0.607,0.684c0.162,0.35 -0.144,3.714 -0.301,5.144c-0.158,1.411 -1.101,5.613 -1.596,6.273c-0.714,-0.823 -1.623,-2.888 -2.698,-4.428c-1.071,-1.539 -6.791,-10.95 -7.896,-14.142c-0.814,-2.358 -1.289,-4.784 -1.315,-6.133c-0.03,-1.347 0.219,-2.449 0.302,-3.549c-0.554,1.403 -0.994,3.412 -0.994,3.412c0,0 -1.124,-6.136 -1.237,-7.953c-0.109,-1.816 0.056,-2.555 0.135,-3.272c0.304,-0.219 0.225,-0.219 1.241,-0.577c1.019,-0.359 2.089,-1.296 3.027,-2.723c0.589,-0.902 1.129,-1.93 1.129,-1.93c0,0 0.22,0.115 0.439,0.249c0.217,0.137 0.604,0 0.965,0c0,0 0.007,-0.004 0.009,-0.006c0.016,-0.041 0.03,-0.075 0.041,-0.102c-0.298,-0.055 -0.903,-0.219 -1.374,-0.907c-0.534,-0.842 -0.62,-1.887 -0.385,-2.67c0.443,-1.459 -0.088,-2.745 0.277,-3.713c0.492,-1.323 1.404,-1.205 1.731,-1.596c0.55,-0.664 1.848,-0.785 2.377,-0.537c0.824,0.332 0.744,1.813 0.719,1.964c0.082,1.816 -0.452,2.561 -0.37,2.866c0.08,0.3 0.164,-0.606 0.576,-1.21c0.162,-0.237 0.237,-0.555 0.272,-0.854c0.14,-0.01 0.277,-0.069 0.299,0.234c0.082,1.073 -0.516,3.586 -0.516,3.586l1.141,1.219l2.202,-4.73c0,0 3.691,-0.263 4.579,-0.449c0.23,-1.172 0.971,-2.828 0.971,-2.828c0,0 4.469,3.093 5.577,3.398c0.385,0.104 1.693,0.587 1.812,0.835c0.115,0.247 -0.693,3.368 -1.527,5.201c-0.312,0.667 -0.665,0.761 -1.613,-0.064c-0.702,-0.613 -3.093,-1.778 -3.952,-1.961c-1.464,-0.309 -1.794,0.248 -2.65,0.723c1.211,-0.145 1.828,0.033 2.269,0.145c0.442,0.108 1.688,1.163 1.688,1.163c0,0 -1.698,-0.258 -2.502,-0.135c-1.109,0.168 -1.577,0.107 -1.577,0.107c0,0 0.035,0.299 0.07,0.541c0.605,0.055 0.636,0.108 0.711,0.367c0.126,0.413 0.067,1.01 1.013,2.003c0.874,0.91 2.829,0.722 3.162,0.527c0.023,0.471 -0.178,1.253 -2.554,1.222c1.085,0.496 1.301,0.745 3.399,0.086c2.087,-0.663 2.531,-0.965 3.198,0.337c0.779,1.517 -0.497,2.798 -1.076,4.327c-0.422,1.104 0.061,2.206 -1.285,3.276c-0.892,0.718 -2.403,-0.507 -2.889,-1.216c-0.657,-0.948 -1.804,-1.42 -1.767,-0.702c0.019,0.436 0.68,0.165 1.32,0.889c0.284,0.325 0.309,0.816 0.722,1.403c0.833,1.184 0.04,1.486 0.308,2.07c0.578,0.057 0.969,-0.13 0.969,-0.13l0.043,0.761c0,0 -0.653,0.153 -1.072,0c-0.42,-0.149 -0.41,-0.698 -1.18,-1.032c-0.765,-0.321 -4.994,-0.162 -5.095,-0.307c-0.101,-0.144 0.287,-0.602 0.039,-0.602c-0.429,0 -1.289,1.289 -1.289,1.289c0,0 0.344,0.509 0.486,0.264c0.187,-0.321 0.374,-0.456 0.517,-0.597c0.23,0.191 0.172,0.354 1.052,0.354c0.882,0 2.022,0 3.287,0.482c0.804,0.306 1.334,1.3 0.161,1.188c-0.783,-0.079 -0.857,-0.559 -2.559,-0.541c-0.719,0.004 -1.821,-0.334 -1.821,-0.334c0,0 0.184,0.755 0.735,1.087c0.552,0.329 0.961,0.235 1.68,0.346c0.711,0.11 1.633,0.616 1.798,1.503c0.167,0.876 -0.498,2.273 -2.33,2.139c-1.375,-0.106 -2.662,-0.285 -1.947,0.432c0.716,0.713 1.87,1.043 3.631,1.043c1.761,0 3,-1.027 3.99,-2.568c0.991,-1.541 2.536,-4.02 4.358,-5.017c1.754,-0.956 4.196,-3.144 4.581,-4.518c0.383,-1.375 0.826,-2.09 1.869,-2.917c1.047,-0.826 0.803,-2.689 1.133,-3.513c0.331,-0.826 2.543,-5.399 2.612,-7.708c0.177,-6.158 -5.878,-12.358 -7.106,-13.401c-0.032,-0.025 -0.063,-0.056 -0.097,-0.083c2.306,1.387 5.175,3.872 6.553,7.49c1.733,4.542 1.526,7.261 1.114,9.201c-0.414,1.939 -2.022,4.294 -2.227,5.284c-0.206,0.986 0.08,2.597 -0.906,3.217c-0.994,0.62 -1.652,1.158 -2.435,2.971c-0.784,1.815 -1.361,2.518 -3.262,3.714c-1.897,1.194 -3.383,2.639 -3.882,3.509m3.882,0.25c0.248,0.489 0.454,1.606 0.454,1.606c0,0 0.167,-0.085 0.205,-1.156c1.117,1.485 2.01,1.596 3.882,2.64c1.869,1.05 3.875,1.487 4.539,1.98c1.152,0.745 2.022,2.231 2.597,3.495c-0.37,0.098 -0.535,0.202 -1.21,0.056c-0.645,-0.865 -1.782,-2.601 -3.245,-3.19c-1.197,-0.482 -1.525,-0.277 -2.255,-1.045c0.109,0.894 0.645,2.298 -0.333,3.409c-0.093,-3.094 -1.044,-3.85 -1.814,-4.125c-0.772,-0.276 -2.029,-1.487 -2.029,-1.487c0,0 0.447,1.691 0.49,2.531c0,1.43 -0.33,2.67 -0.939,3.578c0.071,-1.484 -0.383,-3.301 -0.711,-5.448c-0.331,-2.147 -1.678,-2.67 -2.27,-3.551c0,0 0.414,-0.574 0.907,-0.741c0.936,0.328 1.487,0.95 1.732,1.448m15.081,9.94c0.99,0 0.999,-0.271 1.827,-0.164c0.821,0.113 1.089,0.242 1.483,0.828c0.614,0.906 0.715,0.548 1.267,0.987c0.552,0.441 0.768,0.771 0.713,1.817c-0.051,1.043 0.333,1.54 1.046,3.19c0.717,1.65 0.662,1.267 1.046,4.9c0.384,3.629 -0.166,5.116 -0.166,5.116c-0.053,3.245 0.658,2.86 1.046,5.279c0.384,2.422 0.989,4.294 1.651,6.055c0.662,1.761 0.55,4.782 0,6.933c-0.549,2.143 -0.772,3.13 -1.214,4.564c-0.437,1.431 -2.662,5.173 -2.291,5.723c0.937,1.379 1.596,-0.164 1.783,-0.352c0.109,-0.108 -0.037,-0.141 0.791,-0.695c0.822,-0.548 0.988,-2.86 1.258,-4.293c0,0 0,-0.603 0.937,-1.318c0.719,-0.545 0.714,0.607 0.772,2.751c0.054,2.143 -1.374,4.405 -2.967,6.216c-1.6,1.818 -1.984,2.697 -2.976,4.237c-0.99,1.54 -2.201,2.532 -3.851,3.024c-1.653,0.496 -2.864,1.212 -4.566,2.093c-1.762,0.906 -2.897,0.672 -4.566,-0.055c-1.654,-0.717 -2.42,-0.278 -4.405,-1.648c-1.41,-0.982 -1.816,-2.371 -2.477,-4.406c-0.655,-2.039 -1.922,-3.521 -2.032,-4.95c-0.11,-1.428 0.369,-2.841 0.974,-3.885c0.439,-0.755 0.676,-1.342 0.969,-1.691c0.159,-0.185 0.464,-0.089 0.479,0.151c0.021,0.418 -0.051,0.942 0.164,1.517c0.298,0.796 0.959,1.999 1.761,2.48c-0.547,-1.152 -1.262,-2.089 -1.324,-4.454c-0.053,-2.314 0.277,-1.602 0.277,-2.974c0,-1.376 0.222,-2.751 0.826,-3.91c0.604,-1.153 1.098,-1.701 2.032,-2.306c0.478,-0.31 1.096,-0.848 1.395,-1.095c0.23,-0.186 0.568,0.025 0.501,0.316c-0.14,0.571 -0.547,1.541 -0.847,2.483c1.268,-1.099 1.488,-3.412 2.26,-5.115c0.767,-1.709 1.589,-2.202 2.909,-2.753c1.324,-0.55 0.503,1.069 1.331,-0.411c0.823,-1.489 0.743,-1.729 0.783,-2.62c0.04,-0.892 -0.145,-1.633 -0.186,-2.031c0.336,0.005 0.91,0.169 1.278,-0.076c-0.309,-0.123 -0.342,-0.013 -1.441,-0.618c-1.105,-0.607 -1.654,-1.838 -2.148,-2.72c-0.493,-0.878 -0.771,-1.777 -0.742,-2.731c0.04,-1.312 -0.371,-0.76 -0.351,-1.708c0.721,-0.247 1.073,0.514 1.713,0.724c-0.62,-0.498 -0.582,-0.683 -0.62,-0.807c0.167,-0.062 0.434,-0.249 0.865,-0.496c-0.72,0.31 -0.946,0.349 -1.524,0.179c-1.064,0.088 -1.469,-0.113 -2.085,-0.344c0.725,0.599 1.467,0.638 0.93,0.947c-0.651,0.378 -0.64,-0.039 -1.653,-0.766c-0.706,-0.512 -0.692,-0.531 -0.603,-1.817c0.061,-0.931 0.751,-0.863 1.551,-1.003c0.789,-0.141 1.361,-0.272 2.253,-0.251c0.39,0.01 1.049,-0.041 1.363,-0.101c-0.147,0 -0.127,0.039 -0.211,-0.085c0.145,-0.103 0.517,-0.286 1.039,-0.452c-0.438,0.05 -0.959,0.274 -1.158,0.31c-0.703,0.163 -1.449,0.039 -2.195,-0.015c-0.825,-0.061 -1.396,0.063 -2.056,0.447c-0.661,0.388 -0.917,0.103 -1.083,-0.557c-0.166,-0.659 -0.166,-1.323 0.441,-2.036c0.608,-0.715 0.945,-0.775 2.107,-0.832c1.153,-0.056 1.634,0.172 2.35,0.226c0.712,0.056 1.594,0.209 2.2,0.338c-0.279,-0.067 -1.024,-0.338 -1.128,-0.401c0.041,-0.039 0.317,-0.181 0.642,-0.411c-0.428,0.147 -0.619,0.209 -0.768,0.27c-0.327,0 -0.636,0.016 -1.669,-0.084c-0.998,-0.095 -2.289,-0.451 -2.539,-0.206c-0.144,0.144 -0.456,0.327 -0.853,0.374c-0.173,0.018 -0.35,0 -0.411,-0.168c-0.046,-0.136 -0.057,-0.254 -0.095,-0.371c-0.163,-0.515 0.164,-1.596 0.772,-2.093c0.601,-0.492 1.045,-0.492 2.09,-0.329c1.043,0.171 2.504,0.174 3.18,0.42c0.436,0.083 0.428,-0.125 1.447,0.207c-0.653,-0.282 -0.826,-0.249 -1.051,-0.373c0.124,-0.165 0.277,-0.301 0.721,-0.514c-0.257,0.069 -0.517,0.385 -1.258,0.389c-0.496,0 -0.97,-0.196 -2.621,-0.473c-1.652,-0.274 -2.394,-0.124 -2.394,-0.124c-0.606,0.057 -0.433,-0.468 0.064,-1.403c0.493,-0.933 0.867,-0.825 1.745,-0.825c0.879,0 1.704,0.113 2.861,0.389c1.154,0.272 1.642,0.436 2.632,0.436m13.717,73.888l-43.678,-0.039c-0.116,-2.1 0.052,-4.722 -0.551,-5.619c-1.073,-1.585 -2.891,-3.713 -2.891,-3.713c0,0 2.975,-1.977 3.796,-3.137c0.825,-1.155 1.611,-2.908 2.399,-3.795c0.285,-0.326 0.737,-0.772 1.242,-1.25l14.431,-0.028c0.555,0.594 1.238,0.995 2.234,1.031c2.222,0.084 3.212,1.401 5.278,0.907c1.461,-0.35 2.839,-1.272 4.337,-1.96l4.002,-0.009l9.401,17.612Zm2.688,12.879c1.515,1.84 1.953,3.291 1.596,5.054c-0.391,1.857 -1.546,3.528 -3.504,5.139c-1.978,1.625 -3.82,2.427 -5.72,2.445c-1.822,0.028 -3.157,-0.684 -4.669,-2.516l-7.211,-8.773l4.076,-3.352l6.894,8.378c1.127,1.371 2.481,1.518 3.806,0.427c1.347,-1.105 1.46,-2.465 0.338,-3.829l-6.894,-8.383l4.077,-3.356l7.211,8.766Zm-21.388,21.928c-2.544,1.111 -5.032,1.218 -7.007,0.328c-1.223,-0.559 -1.998,-1.344 -2.819,-2.887l4.961,-2.168c0.576,1.185 1.74,1.483 3.269,0.811c1.23,-0.54 1.88,-1.429 1.562,-2.152c-0.211,-0.481 -0.701,-0.617 -1.831,-0.497l-3.626,0.404c-2.035,0.233 -3.276,0.085 -4.353,-0.455c-0.934,-0.485 -1.696,-1.303 -2.13,-2.294c-1.305,-2.977 0.503,-6.164 4.445,-7.889c2.545,-1.112 4.781,-1.202 6.46,-0.261c1.012,0.535 1.594,1.203 2.306,2.566l-4.648,2.034c-0.713,-0.843 -1.55,-1.049 -2.594,-0.592c-0.965,0.423 -1.514,1.15 -1.27,1.71c0.182,0.405 0.556,0.534 1.291,0.445l3.467,-0.452c4.167,-0.559 6.128,0.168 7.233,2.684c1.444,3.31 -0.435,6.786 -4.716,8.665m-16.662,5.305l-5.326,1.229l-2.907,-12.613l-4.91,1.128l-1.048,-4.56l15.163,-3.482l1.045,4.56l-4.915,1.126l2.898,12.612Zm-20.277,3.297l-1.706,-17.526l5.439,-0.531l1.708,17.535l-5.441,0.522Zm-3.323,-27.919c-0.288,0.127 -1.65,-0.123 -2.189,-0.372c-0.534,-0.241 -1.646,-1.111 -2.392,-1.524c-0.741,-0.41 -0.741,-0.41 -1.153,-1.565c-0.416,-1.157 -0.951,-3.387 -1.238,-4.171c-0.288,-0.782 -0.579,-3.214 -0.248,-4.495c0.329,-1.281 0.745,-3.595 0.909,-4.75c0.161,-1.151 0.204,-2.679 0.989,-3.915c0.784,-1.241 2.557,-3.633 3.3,-4.581c0.744,-0.948 1.402,-1.691 2.562,-2.478c1.249,-0.85 2.389,-1.194 3.176,-0.908c1.161,0.429 2.188,1.237 2.188,1.237c0.491,0.868 0.201,0.868 -0.621,0.659c-0.545,-0.134 -1.363,-0.988 -1.527,-0.62c-0.166,0.372 0.452,0.372 0.577,1.079c0.124,0.698 0.247,1.442 -0.246,3.133c-0.288,1.036 -0.541,1.611 -0.909,1.943c-0.262,-0.266 -0.409,-0.514 -0.62,-0.705c0.468,-0.504 1.012,-2.489 0.659,-3.465c-0.215,0.828 -0.707,2.151 -1.481,2.602c-0.29,-0.086 -0.746,-0.246 -0.826,-0.66c0.788,-0.164 1.378,-1.4 1.482,-2.523c-0.547,-0.152 -1.058,0.502 -1.446,1.034c-0.556,0.767 -0.946,1.402 -1.439,2.149c-0.498,0.739 -0.663,1.196 -0.663,1.196c0,0 0.082,-1.531 0.663,-2.438c0.578,-0.907 1.199,-1.816 1.895,-2.266c0.769,-0.5 1.237,-0.295 1.445,-0.58c0.206,-0.291 -0.044,-0.741 -0.371,-0.741c-0.33,0 -0.948,0.327 -1.443,0.699c-0.493,0.372 -1.115,0.947 -1.733,1.444c-0.621,0.498 -2.93,3.711 -3.755,5.45c-0.826,1.73 -1.364,4.744 -1.569,6.147c-0.207,1.4 -0.537,2.602 -0.039,4.911c0.493,2.308 0.86,3.587 1.155,4.58c0.284,0.987 0.37,1.033 1.031,1.482c0.658,0.46 1.484,1.24 2.393,1.484c0.906,0.256 1.526,0.045 1.653,0.417c0.121,0.366 0.121,0.988 -0.169,1.111m-2.706,22.173c-0.103,2.583 -0.462,3.628 -1.643,4.66c-1.289,1.16 -3.134,1.747 -5.195,1.661c-4.113,-0.169 -6.544,-2.829 -6.372,-7.048l0.047,-1.114l5.091,0.209l-0.059,1.456c-0.051,1.239 0.401,1.891 1.351,1.931c0.949,0.039 1.447,-0.547 1.498,-1.816l0.474,-11.56l5.276,0.217l-0.468,11.404Zm-17.818,0.348l-7.615,-1.657l0.902,-4.13l7.614,1.659l-0.901,4.128Zm-14.519,-0.388c-1.812,0.58 -3.832,0.396 -6.201,-0.517c-2.391,-0.922 -3.989,-2.13 -4.947,-3.772c-0.921,-1.568 -0.962,-3.085 -0.108,-5.303l4.079,-10.6l4.931,1.897l-3.898,10.132c-0.636,1.653 -0.099,2.906 1.5,3.519c1.631,0.627 2.869,0.057 3.505,-1.596l3.898,-10.13l4.928,1.895l-4.078,10.598c-0.85,2.217 -1.897,3.318 -3.609,3.877m-23.933,-9.641l8.807,-15.255l4.737,2.732l-8.81,15.253l-4.734,-2.73Zm-5.79,-5.568c-1.728,0.158 -3.556,-0.491 -5.153,-1.801c-3.184,-2.612 -3.519,-6.198 -0.839,-9.466l0.703,-0.858l3.941,3.231l-0.922,1.123c-0.785,0.967 -0.819,1.751 -0.085,2.355c0.734,0.603 1.487,0.439 2.293,-0.545l7.337,-8.938l4.083,3.345l-7.237,8.821c-1.641,1.998 -2.554,2.618 -4.121,2.733m57.669,-36.14c-2.024,-0.488 -5.035,-1.895 -6.646,-3.34c-1.608,-1.443 -5.734,-2.808 -6.56,-3.176c-0.824,-0.371 -1.813,-1.444 -2.352,-2.109c-0.537,-0.654 -2.805,-2.267 -3.342,-2.719c-0.533,-0.456 -0.819,-1.196 -0.992,-1.567c-0.163,-0.373 -0.287,-1.941 -0.287,-2.601c0,-0.659 -0.33,-1.236 -0.785,-1.818c-0.451,-0.574 -1.815,-2.555 -2.145,-3.384c-0.329,-0.823 -1.116,-3.013 -1.526,-3.96c-0.413,-0.946 -2.305,-3.094 -2.846,-4.004c-0.54,-0.903 -1.65,-2.709 -1.447,-3.38c0,0 1.183,-0.399 1.72,-0.315c0.111,0.439 0.097,0.724 0.508,1.634c0.415,0.908 2.437,3.55 3.347,4.623c0.905,1.068 0.989,2.311 1.235,3.467c0.247,1.152 0.703,2.39 1.443,2.842c0.743,0.457 2.6,2.888 3.097,3.595c0.494,0.7 1.844,2.928 1.111,2.928c-0.243,0 -0.824,-0.994 -1.445,-1.733c-0.613,-0.741 -1.36,-2.063 -2.306,-2.474c-0.046,0.867 0.659,1.893 0.823,3.213c0.163,1.328 0.745,1.694 1.899,2.727c0.94,0.84 1.859,1.443 3.053,2.807c1.194,1.36 5.077,3.015 7.098,3.504c2.023,0.496 3.343,1.739 3.013,1.9c-0.334,0.164 -1.651,-1.239 -2.352,-0.784c1.03,0.948 3.755,2.107 5.363,2.64c1.609,0.538 4.21,0.996 5.904,1.117c1.693,0.121 2.887,0.948 2.887,0.948c0.413,0.451 -0.534,0.537 -0.951,0.289c-1.237,-0.745 -4.496,-0.374 -6.519,-0.87m-40.346,-16.964l6.847,-15.514c1.861,0.081 3.541,0.13 3.541,0.13c0,0 0.804,3.404 1.937,5.26c1.716,2.808 3.268,3.131 4.067,5.551c0.665,2.014 1.722,3.674 2.394,4.501l-18.786,0.072Zm-3.809,-22.398c-0.602,-1.983 -1.924,-4.021 -2.859,-5.061c-0.937,-1.046 -2.099,-4.308 -2.257,-5.395c-0.109,-0.771 0.22,-0.99 0.718,-0.932c0.494,0.053 0.547,0.768 0.822,2.032c0.275,1.266 1.487,1.761 2.478,3.081c0.992,1.322 1.758,2.975 1.978,3.962c0.222,0.991 0.167,1.871 1.045,3.411c0.882,1.542 2.645,2.148 3.962,2.419c1.324,0.279 2.313,0 3.523,0.279c1.211,0.275 2.419,0.608 3.63,0.551c1.211,-0.058 1.543,0.057 2.75,-0.664c1.213,-0.711 2.203,-0.657 2.755,-0.825c0.55,-0.165 1.261,-0.495 1.482,-1.32c0.186,-0.689 -1.043,0.44 -2.805,1.102c-1.759,0.659 -2.971,-0.055 -3.961,0c-0.99,0.053 -1.594,0.495 -2.808,-0.055c-1.205,-0.55 -2.527,-0.33 -2.751,-0.66c-0.367,-0.557 1.761,-1.209 2.863,-0.991c1.102,0.223 4.512,0.164 5.612,0c1.103,-0.163 2.586,-0.768 3.303,-1.099c0.713,-0.329 1.374,-1.378 2.143,-2.42c0.77,-1.046 1.102,-0.83 1.653,-1.32c0.547,-0.498 0.713,-1.436 1.209,-1.599c0.495,-0.165 0.878,0.279 0.878,1.542c0,1.266 -0.603,0.77 -0.383,1.869c0.22,1.101 2.478,-1.538 3.301,-2.914c0.828,-1.376 1.099,-1.929 2.423,-2.916c1.32,-0.993 1.594,-0.88 2.144,-1.873c0.552,-0.987 1.65,-1.592 2.036,-3.3c0.251,-1.106 1.015,-1.715 1.322,-2.256c0.314,-0.564 1.179,-2.003 1.981,-2.533c0.78,-0.514 1.044,-1.703 1.374,-2.864c0.329,-1.152 0.634,-1.576 1.32,-2.855c0.383,-0.713 0.687,-2.46 0.303,-2.67c-0.58,1.545 -0.979,2.426 -1.787,2.725c-0.733,0.272 -0.661,0.77 -1.267,1.374c-0.125,-1.313 0.632,-2.84 0.331,-3.797c-0.401,-1.261 -1.321,-2.97 -1.761,-4.232c-0.44,-1.267 -1.487,-2.424 -2.04,-3.964c-0.547,-1.539 -0.657,-2.643 -1.152,-4.127c-0.495,-1.487 -1.21,-2.806 -2.035,-3.741c-0.109,-0.743 -0.083,-1.155 -0.109,-2.035c0.549,-0.057 0.66,0.106 1.044,0.938c0.384,0.821 1.873,1.924 2.476,2.581c0.603,0.66 1.097,1.873 1.763,3.246c0.326,-1.704 -0.773,-3.356 -1.323,-4.182c-0.55,-0.824 -2.254,-1.593 -2.036,-2.252c0.22,-0.661 2.036,-0.331 2.751,-0.055c0.716,0.277 1.924,1.32 2.697,1.651c0.768,0.329 0.935,1.756 1.431,2.747c0.492,0.992 1.21,2.973 1.816,4.071c0.33,-0.769 -0.386,-3.956 -1.047,-5.775c-0.663,-1.816 -2.422,-1.87 -2.531,-2.417c-0.112,-0.553 0.552,-0.553 1.542,-0.831c0.989,-0.274 3.08,-0.164 4.014,-0.107c0.936,0.055 2.253,-0.772 3.138,-1.156c0.882,-0.383 2.034,-0.716 2.478,-0.383c-0.775,0.935 -1.93,1.191 -2.751,1.646c-1.031,0.577 -1.216,0.278 -1.322,2.313c-0.11,2.035 -0.11,4.295 0.163,7.041c0.274,2.753 0.442,2.864 1.377,5.449c0.937,2.583 2.861,7.317 3.685,9.297c0.828,1.98 3.576,6.99 4.239,8.529c0.658,1.542 2.475,4.017 3.079,5.445c0.607,1.432 1.929,4.615 2.643,5.889c1.318,2.364 1.868,4.182 2.475,5.448c-0.658,1.269 -1.157,2.474 -1.543,3.137c-0.383,0.66 -0.824,1.648 -1.538,2.586c-0.772,-1.051 -0.884,-1.325 -1.652,-2.755c-0.769,-1.428 -2.254,-2.749 -2.806,-3.408c-0.548,-0.665 -1.264,-2.037 -1.871,-2.808c-0.603,-0.768 -0.658,-1.761 -1.044,-3.136c-0.386,-1.374 0.057,-2.199 -0.825,-3.414c-0.881,-1.207 -1.157,-0.325 -0.935,0.994c0.219,1.319 0.825,1.706 1.374,3.742c0.548,2.035 0.772,3.463 1.43,4.512c0.661,1.043 1.927,2.97 2.916,4.347c0.992,1.375 1.266,1.81 1.216,3.079c-0.06,1.268 0.491,2.53 0.819,3.524c-0.438,1.099 -0.938,1.866 -2.145,3.905c-1.207,2.034 -2.422,4.014 -3.688,5.611c-1.262,1.596 -3.026,3.462 -4.234,4.461c-1.211,0.983 -2.59,2.855 -3.245,3.407c-0.66,0.549 -0.99,-0.11 -1.76,-0.879c-0.772,-0.773 -1.1,-1.325 -3.028,-1.985c-1.926,-0.662 -2.201,-0.272 -3.247,-1.542c-0.053,1.052 1.301,2.265 2.75,2.696c1.654,0.498 2.864,1.491 3.084,2.862c0.028,0.176 -0.659,1.49 -2.203,0.887c-2.35,-0.928 -4.29,-2.918 -5.886,-3.854c-1.596,-0.935 -2.091,-1.539 -2.696,-2.531c-0.604,-0.988 -1.102,-2.039 -1.102,-3.029c0,-0.99 -0.44,-3.133 -1.155,-4.29c-0.715,-1.156 -0.771,-2.64 -0.715,-3.576c0.052,-0.842 2.322,2.926 2.972,3.576c0.743,0.739 4.514,2.472 4.951,3.74c0.496,1.431 2.258,2.591 3.412,2.591c-1.154,-1.434 -1.21,-1.493 -2.2,-3.308c-0.992,-1.813 -3.797,-4.016 -5.283,-5.387c-1.484,-1.377 -2.641,-3.085 -2.641,-5.668c0,-2.584 -0.714,-3.358 -1.321,-4.344c-0.606,-0.994 -0.383,-2.534 -0.606,-4.458c1.213,0.987 1.764,1.208 3.743,1.647c1.981,0.441 2.697,1.045 3.743,2.423c1.044,1.374 1.757,1.208 1.757,1.208c0.608,0.059 1.406,0.505 1.434,0.279c0.107,-0.935 -0.129,-1.454 -0.883,-2.587c-0.77,-1.155 -0.551,-1.543 -0.935,-3.634c-0.385,-2.089 -2.475,-3.575 -3.466,-4.288c-0.99,-0.717 -1.429,-1.322 -1.65,-3.69c-0.221,-2.368 1.431,-3.795 2.641,-5.061c1.21,-1.264 1.543,-2.419 2.312,-5.003c0.771,-2.588 1.696,-2.268 2.474,-3.139c0.937,-1.045 1.261,-1.933 1.43,-3.466c0.22,-1.981 0.835,-2.554 1.266,-3.635c0.22,-0.546 0.55,-0.546 0.496,-1.755c-0.055,-1.21 -0.659,-0.553 -0.659,0.166c0,0.711 -0.44,1.814 -0.989,2.746c-0.553,0.936 -0.997,1.809 -1.161,2.917c-0.202,1.41 -0.687,2.493 -1.923,3.249c-1.495,0.911 -1.428,1.428 -2.476,3.081c-1.043,1.646 -0.99,3.192 -1.376,4.017c-0.385,0.822 -2.035,2.255 -3.081,2.967c-1.222,0.841 -1.871,1.325 -2.42,2.697c-0.55,1.374 -1.321,2.421 -2.529,3.024c-1.213,0.605 -1.652,0.996 -2.645,1.438c0.114,-0.718 0.718,-1.766 0.497,-2.699c-0.771,0.879 -2.103,4.313 -3.192,6.268c-1.101,1.982 -2.144,1.376 -3.906,1.711c-1.759,0.327 -3.685,0.878 -6.327,0.878c-2.641,0 -6.821,-1.484 -8.088,-2.035c-1.266,-0.554 -2.202,-2.093 -2.807,-4.071m-12.641,22.463l-22.701,0.087l20.699,-43.315c0.829,2.375 1.393,4.234 3.874,5.887c2.723,1.817 4.457,2.146 4.457,2.146c0,0 0.081,2.643 0.744,3.801c0.661,1.15 0.905,4.037 1.896,4.945c0.57,0.525 1.305,1.274 1.97,2.175l-10.939,24.274Zm-38.588,-57.124l1.543,-4.998l18.983,-0.396l-1.551,5.027l-2.589,-0.047l-1.542,4.999l2.155,1.451l-1.524,4.925l-15.475,-10.961Zm14.274,18.762c-0.432,0.168 -0.626,0.198 -1.574,0.153l-1.272,-0.062c-2.593,-0.178 -3.626,0.445 -3.817,2.402l-0.264,2.08l6.243,0.792l-0.625,4.942l-17.878,-2.269l0.977,-7.712c0.359,-2.841 0.715,-3.926 1.608,-4.945c0.982,-1.104 2.627,-1.627 4.399,-1.399c2.009,0.253 3.358,1.228 4.142,2.986c0.873,-1.295 2.086,-1.845 4.122,-1.814l2.99,0.053c0.87,0.034 1.091,-0.014 1.581,-0.201l-0.632,4.994Zm-6.19,-39.747l11.869,5.877l3.285,-6.635l4.287,2.119l-5.573,11.26l-16.155,-7.997l2.287,-4.624Zm11.469,-18.911c1.354,-1.882 2.568,-2.732 4.245,-2.928c1.572,-0.192 3.197,0.277 4.731,1.386c1.622,1.17 2.607,2.709 2.774,4.371c0.153,1.492 -0.258,2.762 -1.47,4.437l-1.812,2.503l4.405,3.181l-2.918,4.041l-14.608,-10.55l4.653,-6.441Zm11.655,-13.217l4.177,4.45l3.489,-3.271l-4.178,-4.452l3.635,-3.413l12.332,13.144l-3.641,3.407l-4.875,-5.201l-3.489,3.278l4.882,5.201l-3.635,3.408l-12.331,-13.14l3.634,-3.411Zm23.655,35.202c0.948,-0.576 2.724,-2.89 3.548,-2.89c0.824,0 1.483,0 2.765,-0.248c1.28,-0.246 3.01,0.54 4.495,1.32c1.487,0.785 3.716,0.247 4.871,-0.29c1.154,-0.532 3.303,-0.782 4.333,-0.49c1.032,0.286 2.229,3.134 2.438,3.917c0.202,0.785 0.821,3.591 1.565,3.344c0.745,-0.247 -0.494,-2.599 -0.494,-2.599c0,0 1.442,1.856 2.146,2.803c0.699,0.95 0.658,2.766 1.114,4.334c0.451,1.567 0.451,5.048 0.484,6.73c0.298,-0.521 0.67,-2.768 0.67,-2.768c0,0 1.196,1.526 1.363,2.103c0.163,0.58 0.66,2.847 1.487,4.993c0.823,2.146 2.02,3.468 2.516,5.532c0.496,2.064 -0.455,3.216 -0.415,5.529c0.042,2.312 -0.29,4.249 -0.906,5.404c-0.621,1.157 -0.907,2.806 -2.353,4.46c-1.446,1.649 -3.466,1.316 -5.488,2.638c-2.018,1.321 -3.758,1.074 -4.744,1.731c-0.992,0.665 -1.569,0.665 -2.438,1.572c-0.863,0.906 -2.103,0.825 -2.97,0.124c-0.865,-0.706 -0.824,-3.055 -0.741,-4.167c0.081,-1.117 1.686,-3.673 2.765,-4.212c0.574,-0.287 1.357,-0.082 2.805,-0.206c1.441,-0.124 2.805,-0.783 5.159,-2.679c2.35,-1.901 3.216,-4.169 3.297,-5.365c0.084,-1.198 0,-2.848 0.291,-3.221c0.292,-0.373 1.898,-0.11 2.765,0.083c-0.37,-0.99 -3.096,-1.018 -3.137,-1.319c-0.04,-0.306 3.509,-2.848 2.931,-3.508c-1.32,0.866 -2.89,2.476 -3.341,2.391c-0.456,-0.079 0.079,-0.988 -0.29,-2.103c-0.372,-1.111 -1.154,-3.178 -1.443,-4.497c-0.288,-1.32 -0.164,-2.931 -0.536,-3.88c-0.373,-0.949 -0.086,-1.096 0.389,-2.641c0.289,-0.619 0.557,-2.703 0.271,-4.005c-0.557,1.526 -0.948,4.851 -1.488,4.812c-0.33,-0.148 -1.091,-2.994 -1.813,-3.408c-0.084,1.486 1.154,3.839 1.524,5.326c0.372,1.482 0.62,3.796 0.783,5.323c0.167,1.525 1.324,2.887 1.489,4.374c0.164,1.482 0.658,4.66 0.411,6.932c-0.247,2.268 -1.28,3.177 -3.628,5.033c-2.357,1.857 -4.293,1.774 -4.293,1.774c-1.074,0 -2.311,-0.205 -3.552,0.127c-0.355,0.093 -0.7,2.307 -1.895,2.474c-1.199,0.165 -4.703,0.783 -6.234,0.617c-1.526,-0.162 -1.856,-1.445 -2.517,-1.401c-0.659,0.865 -2.063,0.905 -3.59,1.071c-1.526,0.168 -3.546,-0.412 -4.62,-1.029c-1.075,-0.621 -1.858,-1.032 -2.848,-1.941c-0.99,-0.908 -1.318,-2.144 -1.691,-3.301c-0.373,-1.156 -0.659,-3.011 -1.032,-4.498c-0.372,-1.487 -0.454,-3.836 -0.454,-5.696c0,-1.854 0.249,-4.33 0.37,-5.363c0.123,-1.033 0.496,-3.713 -0.121,-3.549c-0.618,0.164 -0.416,3.055 -0.663,3.096c-0.246,0.042 -0.37,-1.857 -0.784,-1.692c-0.412,0.164 0.333,2.721 0.333,3.385c0,0.658 -0.083,1.648 0,4.334c0.081,2.679 0.412,5.485 0.823,7.344c0.412,1.855 1.528,4.578 1.486,4.822c-0.042,0.251 -0.166,0.085 -1.526,0.419c-1.361,0.327 -2.475,-0.746 -2.807,-0.247c-0.33,0.492 1.321,1.194 2.599,1.482c1.28,0.288 2.56,-0.082 2.809,-0.248c0.246,-0.163 0.822,0.124 0.493,0.496c-0.329,0.374 -2.309,0.66 -2.309,0.66c-1.444,0.043 -2.516,-1.117 -4.791,-2.515c-2.267,-1.405 -2.179,-3.839 -2.887,-4.954c-0.701,-1.113 -0.412,-3.509 -1.36,-5.691c-0.946,-2.189 -0.7,-5.532 -1.569,-5.776c-0.867,-0.253 -0.333,2.763 -0.333,2.763c0,0 -0.534,-0.87 -1.03,-1.693c-0.493,-0.826 -0.081,-2.227 0.372,-3.054c0.456,-0.826 0.581,-1.897 0.705,-3.754c0.119,-1.857 0.535,-2.023 0.535,-2.023c0,0 -0.084,1.075 0.288,0.948c0.372,-0.124 1.196,-4.911 1.816,-5.446c0.62,-0.537 0.909,-1.033 1.816,-1.772c0.91,-0.745 1.772,-0.955 2.393,-0.955c0.62,0 2.023,-0.244 2.601,-0.573c0.574,-0.335 0.907,-2.228 1.694,-2.729c0.782,-0.494 1.566,-0.572 2.308,-1.068c0.742,-0.497 1.898,-0.413 3.094,-0.413c1.196,0 2.97,-0.165 3.921,-0.743m40.913,-17.343l10.484,19.638c-2.104,0.104 -3.244,1.237 -3.737,1.811c-0.494,0.577 -0.084,1.731 -0.907,1.483c-0.828,-0.249 -2.401,-0.163 -3.47,0.333c-1.071,0.495 -2.805,1.651 -3.959,1.568c-1.155,-0.084 -4.055,-0.29 -4.953,0.384c-1.429,1.074 -0.741,0.276 -1.979,0.028c-0.634,-0.128 -1.634,-0.211 -2.505,-0.261l11.026,-24.984Zm17.765,109.983c-1.569,0.864 -1.467,0.432 -1.445,0.039c0.041,-0.66 1.299,-1.031 2.108,-1.359c1.316,-0.535 1.193,-0.248 2.183,-0.496c0.991,-0.25 1.94,-0.868 2.391,-0.907c0.128,1.403 -2.225,1.65 -2.842,1.978c-1.113,0.594 -1.557,0.279 -2.395,0.745m-9.943,6.214l0.906,0.245c0,0 0.645,1.49 1.733,1.096c1.072,-0.396 1.959,-1.265 2.617,-1.756c0.661,-0.494 1.92,-0.254 2.334,0.164c0.412,0.411 0.742,5.196 0.989,6.765c0.01,0.073 0.022,0.16 0.035,0.248l-11.978,-0.011c0.099,-1.385 0.283,-2.643 0.554,-3.452c0.66,-1.983 2.313,-4.293 2.313,-4.293c0,0 -0.413,0.743 0.497,0.994m10.107,3.071c0.082,2.144 0.165,4.373 0.494,6.107c0.334,1.735 0.949,4.082 1.529,5.284c0.578,1.195 1.57,2.928 2.019,3.627c0.457,0.7 0.293,0.784 -0.079,0.867c-0.37,0.08 -0.618,-0.742 -1.362,-1.693c-0.743,-0.946 -1.773,-3.421 -2.519,-5.487c-0.742,-2.065 -1.11,-4.169 -1.319,-5.443c-0.207,-1.282 -0.165,-5.986 -0.207,-7.593c-0.041,-1.616 -0.496,-2.359 -0.866,-3.059c-0.373,-0.697 -0.742,-1.11 -1.32,-1.073c-0.581,0.042 -0.373,0.743 -0.827,0.825c-0.454,0.085 -0.537,-0.412 -0.537,-0.862c0,0 0.207,-0.373 0.747,-0.706c0.534,-0.328 1.068,-0.248 1.851,0.333c0.787,0.576 1.945,2.804 2.518,3.756c0.829,0.786 1.489,1.319 2.145,2.309c0.663,0.992 0.864,1.489 0.864,2.684c-0.487,-1.195 -0.912,-1.646 -1.646,-2.438c-0.534,-0.572 -1.524,-1.521 -1.772,-1.566c-0.164,0.33 0.205,1.98 0.287,4.128m23.312,-47.375c0.417,-1.359 0.661,-2.72 0.661,-2.72c0.209,0.414 0.374,0.987 0.536,1.648c0.166,0.661 -0.122,1.78 -0.243,2.267c-0.124,0.499 -1.654,5.079 -2.107,6.274c-0.453,1.197 -1.855,6.188 -2.312,7.182c-0.453,0.986 -2.516,4.246 -4.249,6.725c-1.733,2.476 -1.652,2.848 -2.274,4.332c-0.614,1.49 -1.48,3.258 -2.964,4.457c-1.489,1.195 -1.817,1.442 -2.48,2.351c-0.658,0.909 -1.446,1.653 -2.392,2.02c-0.412,0.254 -1.111,0.418 -1.525,0.373c-0.03,-0.212 0.643,-0.694 1.339,-1.254c0.506,-0.413 1.023,-0.868 1.303,-1.301c0,0 1.028,-2.438 2.722,-3.758c1.689,-1.32 1.567,-2.516 2.349,-3.548c0.787,-1.033 1.077,-1.648 1.49,-2.516c-0.87,0.45 -3.222,2.974 -3.674,2.516c0.705,-0.782 1.099,-1.415 1.569,-1.896c0.778,-0.808 1.472,-1.32 2.142,-2.352c0.754,-1.155 1.784,-0.809 3.01,-2.726c1.408,-2.187 1.654,-4.417 2.397,-6.231c0.739,-1.813 2.27,-3.546 2.559,-5.118c0.291,-1.563 0.191,-2.372 0.745,-3.256c0.616,-0.993 0.986,-2.102 1.398,-3.469m2.932,-20.839c-0.738,0.582 -0.907,1.858 -0.825,2.475c-0.744,0.623 -2.023,0.373 -2.227,-0.658c-0.122,-1.235 0.495,-1.651 0.865,-2.062c0.371,-0.415 0.869,-1.774 2.229,-1.526c0,0 -1.029,1.65 -0.042,1.771m-10.976,20.304c0.578,-1.198 1.32,-3.177 2.146,-4.746c0.826,-1.567 1.157,-3.466 1.157,-3.466c0.203,-0.949 0.823,-1.115 0.948,-0.702c0.125,0.409 0.907,0.535 0.659,2.352c-0.244,1.816 -0.906,3.511 -1.813,5.119c-0.909,1.604 -0.788,3.26 -1.325,5.817c-0.535,2.557 -1.357,2.763 -1.73,4.451c-0.373,1.697 -1.811,2.587 -2.891,3.922c-0.826,1.029 -1.575,3.449 -2.059,5.039c-0.456,1.498 -0.951,2.353 -2.111,3.138c-1.154,0.781 -2.675,4.578 -3.461,5.566c-0.785,0.99 -1.406,1.941 -2.847,2.889c-0.249,-1.237 0.743,-2.864 1.691,-4.909c1.131,-2.452 2.456,-3.886 2.603,-4.625c0.199,-1.072 0.86,-2.431 0.451,-3.587c-0.743,1.693 -1.242,3.672 -2.101,4.666c-0.872,0.987 -1.78,2.637 -2.644,4.246c-0.868,1.608 -1.694,1.857 -3.056,2.888c-1.332,1.011 -2.472,2.064 -3.051,3.054c-0.582,0.991 -2.187,2.228 -2.892,2.645c-0.697,0.413 -1.854,0.326 -2.803,0.165c1.029,-0.83 2.887,-2.935 4.041,-4.171c1.156,-1.235 3.634,-4.249 4.292,-5.69c0.662,-1.447 3.759,-6.027 5.326,-8.502c1.564,-2.477 3.424,-6.935 4.451,-8.792c1.038,-1.858 1.945,-4.703 2.974,-7.221c1.033,-2.512 2.971,-8.213 4.004,-11.307c1.033,-3.092 0.619,-4.91 1.074,-5.196c0.454,-0.291 0.62,0.659 0.99,1.155c0.371,0.494 0.535,-0.084 0.618,1.235c0.084,1.32 -0.495,5.28 -0.745,6.77c-0.243,1.484 -1.693,4.62 -2.474,6.767c-0.782,2.146 -1.563,3.921 -2.35,5.57c1.278,-1.198 2.35,-3.343 2.928,-4.54m-8.627,-22.323c0.827,-0.66 1.202,-1.369 1.697,-1.981c0.492,-0.62 0.768,-1.58 1.071,-1.613c0.373,-0.039 0.495,0.17 0.495,0.456c0,0.288 -0.784,1.281 -1.197,1.732c-0.413,0.458 -1.196,1.366 -2.066,1.406m3.472,5.366c0.492,-2.066 0.781,-6.111 0.781,-6.111c0.084,-0.452 0.619,-0.494 0.869,0c0.248,0.497 0.864,2.023 1.485,2.806c0.617,0.787 0.946,0.787 1.609,1.487c0.658,0.7 0.37,1.444 0.163,3.052c-0.206,1.611 -2.102,7.594 -2.848,10.154c-0.74,2.556 -3.587,9.239 -5.359,13.41c-1.781,4.169 -5.121,9.077 -5.949,10.442c-0.823,1.358 -2.804,4.451 -4.247,6.686c-1.446,2.22 -2.642,3.627 -4.332,5.232c-1.694,1.614 -3.509,3.348 -4.252,4.131c-0.741,0.785 -1.446,0.909 -1.897,0.785c-0.452,-0.124 -1.237,-0.744 -2.228,-1.115c-0.99,-0.37 -1.786,-0.037 -2.019,-0.413c-0.21,-0.326 0.039,-0.621 0.283,-0.827c0.249,-0.207 3.63,-3.133 4.75,-4.292c1.111,-1.157 3.091,-3.091 5.114,-5.736c2.023,-2.641 5.202,-8.411 7.221,-11.843c2.024,-3.422 6.066,-12.251 7.099,-14.73c1.034,-2.474 3.259,-11.057 3.757,-13.118m-18.861,-15.437c0.741,2.732 1.941,6.111 3.3,8.508c1.361,2.385 4.993,9.568 5.657,10.973c0.655,1.398 4.084,6.6 4.084,6.6c0.368,0.287 0.495,1.239 0.206,1.443c-0.288,0.209 -0.867,1.857 -1.775,3.344c-0.909,1.486 -1.072,2.846 -1.443,3.094c-0.373,0.249 -0.417,0.496 -0.784,-1.359c-0.375,-1.859 -2.683,-4.87 -3.384,-6.359c-0.7,-1.484 -2.354,-5.405 -4.912,-9.407c-2.558,-3.997 -5.735,-12.463 -7.055,-16.383c-1.325,-3.92 -1.156,-6.389 -1.364,-8.706c-0.209,-2.31 0.096,-3.83 0.618,-4.207c0.548,-0.397 1.89,-1.04 3.016,-2.066c1.159,-1.055 1.9,-1.939 2.227,-2.554c0.327,-0.622 0.948,-1.118 1.936,-1.446c0.993,-0.333 1.902,0.039 2.148,0.537c0.248,0.499 -0.045,1.933 -0.618,1.524c-0.288,-0.204 -0.617,-0.66 -0.824,-0.29c-0.206,0.372 -0.456,0.372 -0.541,0c-0.081,-0.37 -0.241,-0.451 -0.492,0.043c-0.251,0.494 -0.536,1.61 -0.948,2.357c-0.411,0.736 -0.538,1.357 -0.747,4.21c-0.202,2.842 0.955,7.424 1.695,10.144m6.356,-74.17l20.459,36.708c-1.611,-0.622 -3.41,-0.982 -5.4,-0.928c-7.964,0.198 -10.314,4.119 -11.221,5.525c-0.015,0.023 -0.029,0.049 -0.043,0.073l-12.254,-22.213l8.459,-19.165Zm23.23,8.552c2.654,-4.61 7.503,-6.025 11.932,-3.47c3.651,2.104 5.087,5.78 3.742,9.45l-4.46,-2.446c0.372,-1.363 -0.135,-2.542 -1.381,-3.265c-1.847,-1.063 -3.716,-0.242 -5.165,2.274c-1.602,2.783 -1.339,4.948 0.727,6.14c1.25,0.721 2.529,0.658 3.522,-0.194l-1.933,-1.108l1.887,-3.277l6.209,3.578l-4.709,8.168l-2.939,-1.694l0.443,-1.435c-1.852,0.386 -3.567,0.078 -5.307,-0.925c-4.071,-2.348 -5.146,-7.322 -2.568,-11.796m31.238,11.428c2.149,2.023 2.853,2.97 3.2,4.28c0.372,1.441 -0.105,3.037 -1.26,4.274c-1.325,1.406 -2.869,1.849 -4.757,1.385c0.593,1.468 0.379,2.748 -0.773,4.312l-1.69,2.284c-0.505,0.654 -0.594,0.858 -0.704,1.349l-3.78,-3.551c0.095,-0.437 0.182,-0.603 0.742,-1.311l0.749,-0.953c1.575,-1.903 1.631,-3.079 0.118,-4.436l-1.576,-1.479l-4.094,4.362l-3.744,-3.514l11.725,-12.484l5.844,5.482Zm16.188,19.678l-10.805,14.65l-3.013,-4.508l1.543,-1.929l-2.99,-4.481l-2.395,0.672l-2.959,-4.416l17.628,-4.473l2.991,4.485Zm9.329,17.668c1.52,3.825 0.286,7.542 -3.262,9.748l-1.978,-4.715c1.307,-0.819 1.76,-2.186 1.223,-3.549c-0.728,-1.84 -2.975,-2.414 -5.504,-1.411c-2.507,0.99 -3.853,3.098 -3.135,4.913c0.563,1.434 1.818,1.958 3.621,1.552l1.927,4.869c-1.685,0.478 -2.917,0.519 -4.27,0.169c-2.308,-0.605 -4.249,-2.43 -5.239,-4.944c-1.854,-4.676 0.358,-9.42 5.277,-11.364c4.753,-1.881 9.514,0.1 11.34,4.732m5.097,19.293l-16.777,3.477l-1.079,-5.203l16.777,-3.477l1.079,5.203Zm1.786,22.056l-4.285,0.148l-0.319,-9.292l-2.084,0.071l0.284,8.138l-3.929,0.135l-0.278,-8.141l-2.29,0.083l0.34,9.706l-4.543,0.154l-0.515,-14.835l17.121,-0.591l0.498,14.424Zm-61.164,-31.871c0.417,-1.32 0.661,-1.484 1.574,-1.98c0.906,-0.494 1.421,-1.631 1.421,-3.113c0,-1.255 1.581,-4.121 2.228,-6.219l54.324,97.471c10.19,-17.193 15.708,-36.278 15.708,-57.713c0,-61.148 -47.244,-110.849 -107.399,-114.776l-10.503,23.309l-3.381,-6.13l-6.905,15.653l3.251,6.089l-13.261,29.435c-1.27,-0.003 -2.465,-0.211 -3.468,0.293c-1.155,0.578 -2.747,1.67 -4.477,0.763c-1.735,-0.907 -2.478,-1.814 -3.881,-1.485c-1.403,0.331 -2.477,0.722 -3.467,0.641c-0.99,-0.081 -2.226,0.516 -2.226,0.516c-1.321,1.402 -1.735,2.391 -3.964,2.391c-0.181,0 -0.352,0 -0.516,-0.003l33.985,-71.116c-29.844,4.078 -45.873,13.407 -59.074,23.925c-43.926,35.001 -52.174,85.744 -34.177,136.147l39.814,-0.075l-2.291,5.084l16.59,0l2.257,-5.117l32.41,-0.06c1.856,1.799 5.021,4.407 10.371,6.683c2.291,1.051 4.907,1.586 7.446,1.754c-0.822,0.578 -2.827,3.301 -3.486,5.119c-0.385,1.059 -0.545,2.544 -0.677,3.859l-91.937,-0.081c8.806,15.17 22.855,28.1 41.249,37.747c47.731,25.031 101.93,14.969 140.396,-27.81l-15.135,-27.439l7.086,-0.014l-8.135,-13.477l-6.376,0.025l-1.611,-2.923c-0.421,-4.302 -1.641,-4.222 -1.641,-4.222c0,0 0.331,-3.055 0.082,-5.613c-0.248,-2.557 -2.559,-8.007 -3.054,-11.637c-0.496,-3.628 -0.246,-4.044 -0.578,-7.428c-0.332,-3.381 -1.857,-6.416 -1.94,-7.573c-0.085,-1.153 -0.699,-2.061 -1.443,-2.641c-0.745,-0.574 -0.398,-1.094 -2.045,-1.339c0,0 -0.929,-0.087 -2.29,-0.02c-1.716,0.083 -2.411,-0.268 -2.411,-0.268c0,0 -0.951,-2.703 -2.108,-3.939c-1.154,-1.242 -2.291,-1.631 -3.61,-1.963c-1.317,-0.329 -1.151,-0.412 -2.394,-0.989c-1.237,-0.581 -1.729,-0.328 -2.887,-1.32c-0.369,-0.317 -0.831,-0.709 -1.289,-1.094l-1.209,-2.195c0.577,-0.43 1.411,-1.005 2.163,-1.335c1.323,-0.577 2.479,-2.475 2.891,-3.797m38.392,-25.966l-4.918,1.468l1.683,2.519l3.235,-3.987Zm-11.946,-15.279c0.806,-0.863 0.635,-1.765 -0.566,-2.888l-1.906,-1.793l-2.353,2.508l1.906,1.791c1.199,1.126 2.109,1.244 2.919,0.382" style="fill:#105980;"/></g><path d="M848.469,17.475l16.887,0l-0.861,5.492l-11.299,0l-2.442,15.581l9.726,0l-0.865,5.517l-9.726,0l-3.303,21.073l-5.59,0l7.473,-47.663Zm20.366,0l5.589,0l-7.472,47.663l-5.589,0l7.472,-47.663Zm27.697,0l-0.861,5.492l-6.628,0l-6.612,42.171l-5.589,0l6.612,-42.171l-6.654,0l0.861,-5.492l18.871,0Zm3.117,0l5.733,0l2.714,34.235l5.352,-34.138l5.068,-0.073l-7.468,47.639l-5.734,0l-2.581,-33.388l-5.234,33.388l-5.323,0l7.473,-47.663Zm35.934,21.073l-0.865,5.516l-9.726,0l-2.442,15.582l11.298,0l-0.861,5.492l-16.887,0l7.472,-47.663l16.887,0l-0.861,5.492l-11.298,0l-2.443,15.581l9.726,0Zm6.857,-12.29c0.999,-6.371 4.644,-9.557 10.934,-9.557c6.291,0 8.936,3.186 7.938,9.557l-0.922,5.879l-5.588,0l0.921,-5.879c0.422,-2.694 -0.64,-4.049 -3.186,-4.065l-0.048,0c-2.549,0 -4.035,1.355 -4.46,4.065l-0.701,4.475c-0.383,2.436 1.489,5.315 5.613,8.638c3.737,3.016 5.279,6.605 4.627,10.766l-0.975,6.218c-1.001,6.387 -4.639,9.581 -10.913,9.581c-6.304,-0.016 -8.957,-3.21 -7.958,-9.581l0.921,-5.879l5.589,0l-0.921,5.879c-0.425,2.71 0.653,4.065 3.233,4.065c2.549,0 4.035,-1.355 4.461,-4.065l0.879,-5.613c0.413,-2.629 -1.444,-5.605 -5.568,-8.927c-3.737,-3.016 -5.27,-6.662 -4.6,-10.936l0.724,-4.621Zm22.956,0c0.998,-6.371 4.643,-9.557 10.934,-9.557c6.29,0 8.936,3.186 7.937,9.557l-0.921,5.879l-5.59,0l0.922,-5.879c0.422,-2.694 -0.64,-4.049 -3.185,-4.065l-0.048,0c-2.55,0 -4.036,1.355 -4.461,4.065l-0.702,4.475c-0.382,2.436 1.49,5.315 5.614,8.638c3.738,3.016 5.28,6.605 4.627,10.766l-0.974,6.218c-1.002,6.387 -4.639,9.581 -10.914,9.581c-6.304,-0.016 -8.957,-3.21 -7.958,-9.581l0.922,-5.879l5.588,0l-0.921,5.879c-0.425,2.71 0.653,4.065 3.234,4.065c2.548,0 4.035,-1.355 4.46,-4.065l0.88,-5.613c0.412,-2.629 -1.444,-5.605 -5.569,-8.927c-3.736,-3.016 -5.27,-6.662 -4.6,-10.936l0.725,-4.621Zm-225.053,0c0.998,-6.371 4.643,-9.557 10.934,-9.557c6.29,0 8.936,3.186 7.937,9.557l-0.921,5.879l-5.59,0l0.922,-5.879c0.422,-2.694 -0.64,-4.049 -3.186,-4.065l-0.048,0c-2.549,0 -4.035,1.355 -4.46,4.065l-0.702,4.475c-0.382,2.436 1.49,5.315 5.614,8.638c3.738,3.016 5.28,6.605 4.627,10.766l-0.974,6.218c-1.002,6.387 -4.639,9.581 -10.914,9.581c-6.304,-0.016 -8.957,-3.21 -7.958,-9.581l0.922,-5.879l5.588,0l-0.921,5.879c-0.425,2.71 0.653,4.065 3.234,4.065c2.548,0 4.035,-1.355 4.459,-4.065l0.881,-5.613c0.411,-2.629 -1.444,-5.605 -5.569,-8.927c-3.737,-3.016 -5.27,-6.662 -4.6,-10.936l0.725,-4.621Zm36.237,0c0.423,-2.694 -0.64,-4.049 -3.185,-4.065l-0.049,0c-2.548,0 -4.035,1.355 -4.459,4.065l-4.719,30.097c-0.425,2.71 0.645,4.065 3.21,4.065c2.564,0 4.059,-1.355 4.484,-4.065l4.718,-30.097Zm0.871,30.097c-0.999,6.371 -4.645,9.565 -10.938,9.581c-6.29,0 -8.935,-3.194 -7.934,-9.581l4.719,-30.097c0.999,-6.371 4.644,-9.557 10.934,-9.557c6.29,0 8.936,3.186 7.937,9.557l-4.718,30.097Zm10.663,-38.88l5.734,0l2.713,34.235l5.352,-34.138l5.069,-0.073l-7.469,47.639l-5.734,0l-2.581,-33.388l-5.234,33.388l-5.322,0l7.472,-47.663Zm35.345,8.783c0.422,-2.694 -0.64,-4.049 -3.186,-4.065l-0.048,0c-2.549,0 -4.035,1.355 -4.46,4.065l-4.719,30.097c-0.424,2.71 0.645,4.065 3.21,4.065c2.565,0 4.059,-1.355 4.484,-4.065l4.719,-30.097Zm0.87,30.097c-0.999,6.371 -4.644,9.565 -10.938,9.581c-6.29,0 -8.934,-3.194 -7.933,-9.581l4.718,-30.097c0.999,-6.371 4.644,-9.557 10.934,-9.557c6.29,0 8.937,3.186 7.938,9.557l-4.719,30.097Z" style="fill:#105980;fill-rule:nonzero;"/></g><path d="M37.537,46.381l21.806,0l0,19.585l-21.705,0l0,24.229l-23.623,0l0,-71.475l48.256,0l0,20.09l-24.734,0l0,7.571Zm62.898,45.833c-5.586,0 -10.449,-0.774 -14.588,-2.322c-4.139,-1.548 -7.588,-3.668 -10.347,-6.36c-2.76,-2.692 -4.812,-5.872 -6.158,-9.54c-1.347,-3.668 -2.02,-7.622 -2.02,-11.862l0,-43.41l24.027,0l0,40.785c0,3.433 0.825,6.108 2.474,8.026c1.649,1.918 3.987,2.877 7.016,2.877c3.029,0 5.367,-0.959 7.016,-2.877c1.649,-1.918 2.474,-4.593 2.474,-8.026l0,-40.785l23.926,0l0,43.41c0,4.24 -0.724,8.194 -2.171,11.862c-1.447,3.668 -3.584,6.848 -6.41,9.54c-2.827,2.692 -6.344,4.812 -10.55,6.36c-4.206,1.548 -9.103,2.322 -14.689,2.322Zm39.619,-73.494l23.926,0l20.392,36.242l0.404,0l-1.009,-36.242l22.815,0l0,71.475l-24.532,0l-19.786,-34.122l-0.404,0l1.009,34.122l-22.815,0l0,-71.475Zm71.332,35.738c0,-5.721 1.009,-10.903 3.028,-15.547c2.019,-4.644 4.779,-8.615 8.278,-11.913c3.5,-3.298 7.622,-5.838 12.367,-7.622c4.745,-1.783 9.809,-2.675 15.194,-2.675c5.518,0 10.734,0.892 15.647,2.675c4.914,1.784 9.019,4.19 12.317,7.218l-14.739,17.768c-1.346,-1.75 -3.029,-3.079 -5.048,-3.987c-2.019,-0.909 -4.274,-1.363 -6.764,-1.363c-2.019,0 -3.904,0.353 -5.653,1.06c-1.75,0.706 -3.281,1.733 -4.594,3.079c-1.312,1.346 -2.339,2.978 -3.079,4.896c-0.74,1.918 -1.11,4.055 -1.11,6.411c0,2.355 0.387,4.458 1.161,6.309c0.774,1.851 1.817,3.449 3.129,4.796c1.313,1.346 2.844,2.372 4.594,3.079c1.749,0.706 3.6,1.06 5.552,1.06c2.759,0 5.132,-0.572 7.117,-1.717c1.986,-1.144 3.55,-2.49 4.695,-4.038l14.739,17.667c-3.231,3.231 -7.202,5.805 -11.913,7.723c-4.711,1.918 -10.061,2.877 -16.051,2.877c-5.385,0 -10.449,-0.908 -15.194,-2.726c-4.745,-1.817 -8.867,-4.391 -12.367,-7.722c-3.499,-3.332 -6.259,-7.303 -8.278,-11.913c-2.019,-4.61 -3.028,-9.742 -3.028,-15.395Zm111.48,35.737l-24.027,0l0,-51.183l-17.566,0l0,-20.292l59.159,0l0,20.292l-17.566,0l0,51.183Zm23.958,-71.475l24.229,0l0,71.475l-24.229,0l0,-71.475Zm30.624,35.334c0,-5.721 1.009,-10.886 3.029,-15.497c2.019,-4.61 4.795,-8.53 8.328,-11.761c3.534,-3.23 7.723,-5.72 12.569,-7.47c4.846,-1.75 10.095,-2.625 15.749,-2.625c5.653,0 10.903,0.875 15.748,2.625c4.846,1.75 9.053,4.24 12.62,7.47c3.567,3.231 6.36,7.151 8.379,11.761c2.019,4.611 3.028,9.776 3.028,15.497c0,5.721 -1.009,10.936 -3.028,15.648c-2.019,4.711 -4.812,8.732 -8.379,12.064c-3.567,3.331 -7.774,5.905 -12.62,7.722c-4.845,1.818 -10.095,2.726 -15.748,2.726c-5.654,0 -10.903,-0.908 -15.749,-2.726c-4.846,-1.817 -9.035,-4.391 -12.569,-7.722c-3.533,-3.332 -6.309,-7.353 -8.328,-12.064c-2.02,-4.712 -3.029,-9.927 -3.029,-15.648Zm25.541,0c0,2.355 0.353,4.509 1.06,6.461c0.707,1.952 1.683,3.634 2.928,5.048c1.245,1.413 2.742,2.507 4.492,3.281c1.75,0.773 3.635,1.16 5.654,1.16c2.019,0 3.886,-0.387 5.603,-1.16c1.716,-0.774 3.213,-1.868 4.492,-3.281c1.279,-1.414 2.271,-3.096 2.978,-5.048c0.707,-1.952 1.06,-4.106 1.06,-6.461c0,-2.288 -0.353,-4.392 -1.06,-6.31c-0.707,-1.918 -1.699,-3.533 -2.978,-4.846c-1.279,-1.312 -2.776,-2.338 -4.492,-3.079c-1.717,-0.74 -3.584,-1.11 -5.603,-1.11c-2.019,0 -3.904,0.37 -5.654,1.11c-1.75,0.741 -3.247,1.767 -4.492,3.079c-1.245,1.313 -2.221,2.928 -2.928,4.846c-0.707,1.918 -1.06,4.022 -1.06,6.31Zm60.209,-35.334l23.926,0l20.392,36.242l0.404,0l-1.009,-36.242l22.815,0l0,71.475l-24.532,0l-19.787,-34.122l-0.403,0l1.009,34.122l-22.815,0l0,-71.475Zm100.573,0l25.541,0l27.863,71.475l-26.147,0l-3.735,-10.499l-22.714,0l-3.534,10.499l-25.44,0l28.166,-71.475Zm12.417,24.936l-5.855,17.666l11.61,0l-5.755,-17.666Zm45.487,-24.936l24.229,0l0,50.881l23.724,0l0,20.594l-47.953,0l0,-71.475Z" style="fill:#105980;fill-rule:nonzero;"/><path d="M66.456,175.609l48.616,0l0,43.664l-48.391,0l0,54.017l-52.666,0l0,-159.35l107.584,0l0,44.789l-55.143,0l0,16.88Zm68.994,-61.669l54.017,0l0,159.35l-54.017,0l0,-159.35Zm155.391,163.401c-12.604,0 -24.27,-1.95 -34.999,-5.852c-10.728,-3.901 -20.031,-9.49 -27.908,-16.767c-7.878,-7.278 -14.067,-16.093 -18.569,-26.446c-4.501,-10.353 -6.752,-21.907 -6.752,-34.661c0,-12.754 2.251,-24.308 6.752,-34.661c4.502,-10.353 10.654,-19.206 18.456,-26.558c7.803,-7.353 16.956,-13.017 27.459,-16.993c10.503,-3.977 21.757,-5.965 33.76,-5.965c12.454,0 24.271,2.026 35.449,6.077c11.179,4.052 20.294,9.603 27.346,16.656l-31.285,37.586c-3.301,-3.901 -7.202,-7.014 -11.703,-9.34c-4.502,-2.326 -10.053,-3.489 -16.656,-3.489c-4.351,0 -8.59,0.863 -12.716,2.589c-4.126,1.725 -7.765,4.201 -10.916,7.427c-3.151,3.226 -5.702,7.09 -7.652,11.591c-1.951,4.502 -2.926,9.528 -2.926,15.08c0,11.103 2.888,20.144 8.665,27.121c5.777,6.977 15.042,10.466 27.796,10.466c2.251,0 4.577,-0.188 6.977,-0.563c2.401,-0.375 4.277,-0.938 5.627,-1.688l0,-12.154l-25.658,0l0,-42.088l73.148,0l0,87.102c-3.751,2.251 -8.065,4.314 -12.941,6.19c-4.877,1.875 -10.054,3.488 -15.53,4.839c-5.477,1.35 -11.216,2.438 -17.218,3.263c-6.002,0.826 -12.004,1.238 -18.006,1.238Zm178.621,-64.595l-43.664,0l0,60.544l-53.567,0l0,-159.35l53.342,0l0,54.017l43.664,0l0,-54.017l53.792,0l0,159.35l-53.567,0l0,-60.544Zm161.003,60.544l-53.567,0l0,-114.111l-39.162,0l0,-45.239l131.892,0l0,45.239l-39.163,0l0,114.111Z" style="fill:#105980;fill-rule:nonzero;"/><g transform="matrix(6.12323e-17,-1,1,6.12323e-17,-1481.59,1965.44)"><text x="1692.7px" y="2151.22px" style="font-family:'AvenirNext-Heavy', 'Avenir Next', sans-serif;font-weight:900;font-size:34.906px;fill:#105980;">A<tspan x="1720.14px 1748.1px " y="2151.22px 2151.22px ">ND</tspan></text></g><path d="M51.974,342.462l35.189,0l0,31.605l-35.026,0l0,39.1l-38.122,0l0,-115.343l77.873,0l0,32.42l-39.914,0l0,12.218Zm50.52,-44.638l39.099,0l0,115.343l-39.099,0l0,-115.343Zm114.751,115.343l-38.774,0l0,-82.598l-28.347,0l0,-32.745l95.468,0l0,32.745l-28.347,0l0,82.598Zm37.773,-115.343l38.611,0l32.908,58.486l0.652,0l-1.629,-58.486l36.818,0l0,115.343l-39.588,0l-31.931,-55.065l-0.652,0l1.629,55.065l-36.818,0l0,-115.343Zm118.984,0l79.339,0l0,32.257l-42.846,0l0,9.937l40.239,0l0,30.139l-40.239,0l0,10.753l45.616,0l0,32.257l-82.109,0l0,-115.343Zm143.249,118.601c-4.67,0 -9.259,-0.407 -13.766,-1.222c-4.507,-0.815 -8.852,-2.009 -13.033,-3.584c-4.181,-1.575 -8.119,-3.421 -11.811,-5.539c-3.693,-2.118 -7.006,-4.48 -9.938,-7.087l23.622,-25.74c2.716,2.932 6.327,5.539 10.834,7.82c4.508,2.28 9.151,3.421 13.929,3.421c2.173,0 4.155,-0.38 5.947,-1.141c1.792,-0.76 2.688,-2.172 2.688,-4.235c0,-1.086 -0.299,-2.01 -0.896,-2.77c-0.598,-0.76 -1.657,-1.548 -3.177,-2.362c-1.521,-0.815 -3.611,-1.711 -6.272,-2.688c-2.661,-0.978 -6.001,-2.118 -10.019,-3.421c-3.91,-1.304 -7.657,-2.851 -11.241,-4.643c-3.585,-1.793 -6.761,-3.992 -9.531,-6.598c-2.769,-2.607 -4.969,-5.73 -6.598,-9.368c-1.629,-3.638 -2.444,-8.01 -2.444,-13.115c0,-7.168 1.467,-13.25 4.399,-18.246c2.932,-4.996 6.707,-9.096 11.323,-12.3c4.615,-3.204 9.802,-5.512 15.558,-6.924c5.756,-1.412 11.458,-2.118 17.106,-2.118c7.602,0 15.341,1.467 23.215,4.399c7.874,2.933 14.798,7.168 20.771,12.707l-24.111,24.6c-2.606,-3.258 -5.81,-5.729 -9.612,-7.412c-3.801,-1.684 -7.222,-2.525 -10.263,-2.525c-2.824,0 -5.105,0.407 -6.843,1.221c-1.737,0.815 -2.606,2.145 -2.606,3.992c0,1.738 0.896,3.041 2.688,3.91c1.792,0.869 4.697,1.955 8.716,3.258c4.127,1.303 8.471,2.824 13.033,4.562c4.561,1.737 8.77,3.991 12.626,6.761c3.855,2.769 7.032,6.163 9.53,10.182c2.498,4.018 3.747,9.014 3.747,14.988c0,6.951 -1.385,13.006 -4.154,18.165c-2.77,5.159 -6.408,9.449 -10.915,12.87c-4.508,3.421 -9.585,5.973 -15.233,7.657c-5.648,1.683 -11.404,2.525 -17.269,2.525Zm101.71,0c-4.67,0 -9.258,-0.407 -13.766,-1.222c-4.507,-0.815 -8.851,-2.009 -13.033,-3.584c-4.181,-1.575 -8.118,-3.421 -11.811,-5.539c-3.693,-2.118 -7.005,-4.48 -9.938,-7.087l23.623,-25.74c2.715,2.932 6.326,5.539 10.833,7.82c4.508,2.28 9.151,3.421 13.93,3.421c2.172,0 4.154,-0.38 5.946,-1.141c1.792,-0.76 2.688,-2.172 2.688,-4.235c0,-1.086 -0.299,-2.01 -0.896,-2.77c-0.597,-0.76 -1.656,-1.548 -3.177,-2.362c-1.52,-0.815 -3.611,-1.711 -6.272,-2.688c-2.661,-0.978 -6.001,-2.118 -10.019,-3.421c-3.91,-1.304 -7.657,-2.851 -11.241,-4.643c-3.584,-1.793 -6.761,-3.992 -9.531,-6.598c-2.769,-2.607 -4.969,-5.73 -6.598,-9.368c-1.629,-3.638 -2.443,-8.01 -2.443,-13.115c0,-7.168 1.466,-13.25 4.398,-18.246c2.933,-4.996 6.707,-9.096 11.323,-12.3c4.616,-3.204 9.802,-5.512 15.558,-6.924c5.756,-1.412 11.458,-2.118 17.106,-2.118c7.603,0 15.341,1.467 23.215,4.399c7.874,2.933 14.798,7.168 20.772,12.707l-24.112,24.6c-2.606,-3.258 -5.81,-5.729 -9.612,-7.412c-3.801,-1.684 -7.222,-2.525 -10.263,-2.525c-2.824,0 -5.105,0.407 -6.842,1.221c-1.738,0.815 -2.607,2.145 -2.607,3.992c0,1.738 0.896,3.041 2.688,3.91c1.792,0.869 4.697,1.955 8.716,3.258c4.127,1.303 8.471,2.824 13.033,4.562c4.562,1.737 8.77,3.991 12.626,6.761c3.855,2.769 7.032,6.163 9.53,10.182c2.498,4.018 3.747,9.014 3.747,14.988c0,6.951 -1.384,13.006 -4.154,18.165c-2.77,5.159 -6.408,9.449 -10.915,12.87c-4.508,3.421 -9.585,5.973 -15.233,7.657c-5.647,1.683 -11.404,2.525 -17.269,2.525Z" style="fill:#105980;fill-rule:nonzero;"/><text x="13.766px" y="459.563px" style="font-family:'AvenirNext-Heavy', 'Avenir Next', sans-serif;font-weight:900;font-size:35.596px;fill:#105980;">T<tspan x="102.756px 195.805px 291.061px 371.936px 467.725px 548.6px 644.39px " y="459.563px 459.563px 459.563px 459.563px 459.563px 459.563px 459.563px ">RAINING</tspan></text></g></svg>